<svg width="31" height="30" viewBox="0 0 31 30" fill="none" xmlns="http://www.w3.org/2000/svg">
<g clip-path="url(#clip0_205_282)">
<path d="M9.67138 30.001C11.0521 30.001 12.1714 28.8817 12.1714 27.501C12.1714 26.1203 11.0521 25.001 9.67138 25.001C8.29067 25.001 7.17139 26.1203 7.17139 27.501C7.17139 28.8817 8.29067 30.001 9.67138 30.001Z" fill="white"/>
<path d="M22.1714 30.001C23.5521 30.001 24.6714 28.8817 24.6714 27.501C24.6714 26.1203 23.5521 25.001 22.1714 25.001C20.7907 25.001 19.6714 26.1203 19.6714 27.501C19.6714 28.8817 20.7907 30.001 22.1714 30.001Z" fill="white"/>
<path d="M7.98889 6.25L7.66014 3.6725C7.54076 2.66087 7.05436 1.72819 6.29314 1.0513C5.53192 0.374398 4.54879 0.000327346 3.53014 0L0.921387 0V3.75H3.53014C3.6324 3.7511 3.73063 3.79002 3.80588 3.85927C3.88113 3.92852 3.92807 4.02318 3.93764 4.125L5.81264 18.8237C5.9309 19.8362 6.41685 20.7699 7.17822 21.4476C7.93959 22.1253 8.92333 22.4998 9.94264 22.5H26.4214L30.8889 6.25H7.98889ZM23.5614 18.75H9.94264C9.84043 18.7492 9.7422 18.7103 9.6671 18.641C9.59199 18.5716 9.54539 18.4768 9.53639 18.375L8.46764 10H25.9676L23.5614 18.75Z" fill="white"/>
</g>
<defs>
<clipPath id="clip0_205_282">
<rect width="30" height="30" fill="white" transform="translate(0.921387)"/>
</clipPath>
</defs>
</svg>
