<svg width="30" height="30" viewBox="0 0 30 30" fill="none" xmlns="http://www.w3.org/2000/svg">
<g clip-path="url(#clip0_205_283)">
<path d="M23.6252 20.9707C25.6209 18.3037 26.5322 14.9798 26.1756 11.6679C25.8191 8.35608 24.2212 5.30224 21.7036 3.12116C19.186 0.940068 15.9356 -0.206332 12.6067 -0.0872786C9.27786 0.0317748 6.11768 1.40744 3.76232 3.76281C1.40695 6.11817 0.0312865 9.27835 -0.0877669 12.6072C-0.20682 15.9361 0.93958 19.1864 3.12067 21.7041C5.30175 24.2217 8.35559 25.8196 11.6674 26.1761C14.9793 26.5327 18.3033 25.6214 20.9702 23.6257L27.3452 30.0007L30.0002 27.3507L23.6252 20.9707ZM13.1252 22.5007C11.271 22.5007 9.45848 21.9509 7.91677 20.9208C6.37506 19.8906 5.17344 18.4264 4.46387 16.7134C3.7543 15.0003 3.56864 13.1153 3.93038 11.2968C4.29211 9.47818 5.185 7.80772 6.49611 6.4966C7.80723 5.18548 9.4777 4.2926 11.2963 3.93087C13.1148 3.56913 14.9998 3.75479 16.7129 4.46436C18.426 5.17393 19.8901 6.37555 20.9203 7.91726C21.9504 9.45897 22.5002 11.2715 22.5002 13.1257C22.4979 15.6114 21.5095 17.9946 19.7518 19.7523C17.9942 21.5099 15.6109 22.4984 13.1252 22.5007Z" fill="white"/>
</g>
<defs>
<clipPath id="clip0_205_283">
<rect width="30" height="30" fill="white"/>
</clipPath>
</defs>
</svg>
