<svg width="31" height="30" viewBox="0 0 31 30" fill="none" xmlns="http://www.w3.org/2000/svg">
<g clip-path="url(#clip0_205_285)">
<path d="M26.4846 30.001H22.7081V23.751C22.7081 23.0879 22.4428 22.4521 21.9706 21.9832C21.4985 21.5144 20.8581 21.251 20.1904 21.251H10.1195C9.45175 21.251 8.81136 21.5144 8.33919 21.9832C7.86703 22.4521 7.60177 23.0879 7.60177 23.751V30.001H3.8252V23.751C3.82719 22.094 4.49098 20.5054 5.67096 19.3338C6.85093 18.1621 8.45075 17.503 10.1195 17.501H20.1904C21.8591 17.503 23.4589 18.1621 24.6389 19.3338C25.8189 20.5054 26.4826 22.094 26.4846 23.751V30.001Z" fill="white"/>
<path d="M15.1552 15C13.6613 15 12.201 14.5601 10.9589 13.736C9.71679 12.9119 8.74868 11.7406 8.177 10.3701C7.60532 8.99968 7.45575 7.49168 7.74719 6.03683C8.03863 4.58197 8.75799 3.2456 9.81432 2.1967C10.8706 1.14781 12.2165 0.433503 13.6817 0.144114C15.1468 -0.145275 16.6655 0.00324965 18.0457 0.570907C19.4258 1.13856 20.6055 2.09986 21.4354 3.33323C22.2654 4.5666 22.7084 6.01664 22.7084 7.5C22.7064 9.48852 21.9099 11.395 20.4939 12.8011C19.0778 14.2072 17.1578 14.998 15.1552 15ZM15.1552 3.75C14.4083 3.75 13.6781 3.96994 13.0571 4.38199C12.436 4.79405 11.9519 5.37972 11.6661 6.06494C11.3803 6.75016 11.3055 7.50416 11.4512 8.23159C11.5969 8.95902 11.9566 9.62721 12.4848 10.1517C13.0129 10.6761 13.6858 11.0333 14.4184 11.1779C15.151 11.3226 15.9104 11.2484 16.6004 10.9646C17.2905 10.6807 17.8803 10.2001 18.2953 9.58339C18.7103 8.96671 18.9318 8.24168 18.9318 7.5C18.9318 6.50544 18.5339 5.55161 17.8256 4.84835C17.1174 4.14509 16.1568 3.75 15.1552 3.75Z" fill="white"/>
</g>
<defs>
<clipPath id="clip0_205_285">
<rect width="30.2126" height="30" fill="white" transform="translate(0.0488281)"/>
</clipPath>
</defs>
</svg>
