<svg width="31" height="29" viewBox="0 0 31 29" fill="none" xmlns="http://www.w3.org/2000/svg">
<path d="M15.4608 28.3275L14.3706 27.5625C12.9355 26.555 0.354483 17.4788 0.354483 9.1875C0.273085 6.86437 1.12121 4.60371 2.71348 2.89968C4.30574 1.19565 6.51264 0.186833 8.85178 0.09375C10.1429 0.10635 11.4132 0.418956 12.5608 1.00654C13.7085 1.59412 14.7016 2.44036 15.4608 3.4775C16.2199 2.44036 17.2131 1.59412 18.3607 1.00654C19.5084 0.418956 20.7786 0.10635 22.0698 0.09375C24.4089 0.186833 26.6158 1.19565 28.2081 2.89968C29.8004 4.60371 30.6485 6.86437 30.5671 9.1875C30.5671 17.4788 17.9861 26.555 16.551 27.5625L15.4608 28.3275ZM8.85178 3.84375C7.51483 3.93781 6.26921 4.55173 5.38536 5.55223C4.50152 6.55272 4.0508 7.85902 4.13106 9.1875C4.13106 14.0825 11.5117 20.7 15.4608 23.7013C19.4098 20.7013 26.7905 14.0825 26.7905 9.1875C26.8708 7.85902 26.42 6.55272 25.5362 5.55223C24.6524 4.55173 23.4067 3.93781 22.0698 3.84375C20.7328 3.93781 19.4872 4.55173 18.6034 5.55223C17.7195 6.55272 17.2688 7.85902 17.3491 9.1875H13.5725C13.6528 7.85902 13.202 6.55272 12.3182 5.55223C11.4343 4.55173 10.1887 3.93781 8.85178 3.84375Z" fill="white"/>
</svg>
