<svg width="80" height="80" viewBox="0 0 80 80" fill="none" xmlns="http://www.w3.org/2000/svg">
<circle cx="40" cy="40" r="40" fill="#534139"/>
<g clip-path="url(#clip0_1233_587)">
<path d="M39 15.043C33.4404 15.0496 28.1105 17.2612 24.1794 21.1926C20.2484 25.124 18.0373 30.4542 18.0312 36.0138C18.0313 47.0013 35.0438 61.6992 36.9896 63.3409L39.0042 65.043L41.0187 63.3409C42.9604 61.6992 59.9771 47.0013 59.9771 36.0138C59.971 30.4528 57.7588 25.1213 53.826 21.1897C49.8931 17.258 44.561 15.0474 39 15.043V15.043ZM39 56.7992C32.6146 50.9825 24.2771 41.5326 24.2771 36.0138C24.2771 32.109 25.8282 28.3642 28.5893 25.6031C31.3504 22.842 35.0952 21.2909 39 21.2909C42.9048 21.2909 46.6496 22.842 49.4107 25.6031C52.1718 28.3642 53.7229 32.109 53.7229 36.0138C53.7229 41.5221 45.3833 50.9763 39 56.7992Z" fill="white"/>
<path d="M38.9996 42.0802C42.4479 42.0802 45.2433 39.2848 45.2433 35.8365C45.2433 32.3882 42.4479 29.5928 38.9996 29.5928C35.5513 29.5928 32.7559 32.3882 32.7559 35.8365C32.7559 39.2848 35.5513 42.0802 38.9996 42.0802Z" fill="white"/>
</g>
<defs>
<clipPath id="clip0_1233_587">
<rect width="50" height="50" fill="white" transform="translate(14 15)"/>
</clipPath>
</defs>
</svg>
