<svg width="32" height="32" viewBox="0 0 32 32" fill="none" xmlns="http://www.w3.org/2000/svg">
<g clip-path="url(#clip0_1229_1218)">
<path d="M9.33317 32.0013C10.8059 32.0013 11.9998 30.8074 11.9998 29.3346C11.9998 27.8619 10.8059 26.668 9.33317 26.668C7.86041 26.668 6.6665 27.8619 6.6665 29.3346C6.6665 30.8074 7.86041 32.0013 9.33317 32.0013Z" fill="#534139"/>
<path d="M22.6667 32.0013C24.1394 32.0013 25.3333 30.8074 25.3333 29.3346C25.3333 27.8619 24.1394 26.668 22.6667 26.668C21.1939 26.668 20 27.8619 20 29.3346C20 30.8074 21.1939 32.0013 22.6667 32.0013Z" fill="#534139"/>
<path d="M7.53867 6.66667L7.188 3.91733C7.06067 2.83826 6.54184 1.84341 5.72987 1.12138C4.9179 0.399358 3.86923 0.000349169 2.78267 0L0 0V4H2.78267C2.89174 4.00117 2.99652 4.04269 3.07679 4.11656C3.15706 4.19042 3.20712 4.2914 3.21733 4.4L5.21733 20.0787C5.34348 21.1586 5.86183 22.1546 6.67396 22.8775C7.48608 23.6004 8.53541 23.9998 9.62267 24H27.2L31.9653 6.66667H7.53867ZM24.1493 20H9.62267C9.51365 19.9991 9.40887 19.9576 9.32876 19.8837C9.24864 19.8097 9.19894 19.7086 9.18933 19.6L8.04933 10.6667H26.716L24.1493 20Z" fill="#534139"/>
</g>
<defs>
<clipPath id="clip0_1229_1218">
<rect width="32" height="32" fill="white"/>
</clipPath>
</defs>
</svg>
