<svg width="52" height="52" viewBox="0 0 52 52" fill="none" xmlns="http://www.w3.org/2000/svg">
<path d="M26 51C29.2836 51.004 32.5357 50.3592 35.5694 49.1026C38.6031 47.846 41.3585 46.0023 43.6775 43.6775C46.0023 41.3585 47.846 38.6031 49.1026 35.5694C50.3592 32.5357 51.004 29.2836 51 26C51.004 22.7164 50.3592 19.4643 49.1026 16.4306C47.846 13.3969 46.0023 10.6415 43.6775 8.32251C41.3585 5.99772 38.6031 4.15404 35.5694 2.89741C32.5357 1.64078 29.2836 0.99597 26 1.00002C22.7164 0.99597 19.4643 1.64078 16.4306 2.89741C13.3969 4.15404 10.6415 5.99772 8.32251 8.32251C5.99772 10.6415 4.15404 13.3969 2.89741 16.4306C1.64078 19.4643 0.99597 22.7164 1.00002 26C0.99597 29.2836 1.64078 32.5357 2.89741 35.5694C4.15404 38.6031 5.99772 41.3585 8.32251 43.6775C10.6415 46.0023 13.3969 47.846 16.4306 49.1026C19.4643 50.3592 22.7164 51.004 26 51Z" stroke="#534139" stroke-width="2" stroke-linejoin="round"/>
<g clip-path="url(#clip0_1131_882)">
<path d="M36.0509 17.7176L34.2826 15.9492L26.0001 24.2326L17.7176 15.9492L15.9492 17.7176L24.2326 26.0001L15.9492 34.2826L17.7176 36.0509L26.0001 27.7676L34.2826 36.0509L36.0509 34.2826L27.7676 26.0001L36.0509 17.7176Z" fill="#534139"/>
</g>
<defs>
<clipPath id="clip0_1131_882">
<rect width="20" height="20" fill="white" transform="translate(16 16)"/>
</clipPath>
</defs>
</svg>
