<svg width="60" height="60" viewBox="0 0 60 60" fill="none" xmlns="http://www.w3.org/2000/svg">
<circle cx="30" cy="30" r="30" fill="#534139"/>
<path d="M22.248 36.616C22.9733 36.04 23.304 35.7733 23.24 35.816C25.3307 34.088 26.9733 32.6693 28.168 31.56C29.384 30.4507 30.408 29.288 31.24 28.072C32.072 26.856 32.488 25.672 32.488 24.52C32.488 23.6453 32.2853 22.9627 31.88 22.472C31.4747 21.9813 30.8667 21.736 30.056 21.736C29.2453 21.736 28.6053 22.0453 28.136 22.664C27.688 23.2613 27.464 24.1147 27.464 25.224H22.184C22.2267 23.4107 22.6107 21.896 23.336 20.68C24.0827 19.464 25.0533 18.568 26.248 17.992C27.464 17.416 28.808 17.128 30.28 17.128C32.8187 17.128 34.728 17.7787 36.008 19.08C37.3093 20.3813 37.96 22.0773 37.96 24.168C37.96 26.4507 37.1813 28.5733 35.624 30.536C34.0667 32.4773 32.0827 34.376 29.672 36.232H38.312V40.68H22.248V36.616Z" fill="white"/>
</svg>
