<svg width="24" height="24" viewBox="0 0 24 24" fill="none" xmlns="http://www.w3.org/2000/svg">
<path d="M23.0398 8.41607C22.262 7.28368 21.3359 6.26058 20.2864 5.37412L23.1182 2.54328C23.69 1.93786 23.6628 0.983508 23.0574 0.411685C22.4757 -0.137801 21.566 -0.137142 20.9851 0.413146L17.722 3.67722C15.9456 2.78959 13.9847 2.33425 11.999 2.34825C7.53392 2.39099 3.38772 4.66961 0.958174 8.41607C-0.319391 10.295 -0.319391 12.7637 0.958174 14.6427C1.73601 15.7751 2.66205 16.7982 3.71159 17.6846L0.879763 20.5184C0.290694 21.1075 0.290694 22.0626 0.879763 22.6516C1.46883 23.2407 2.4239 23.2407 3.01292 22.6516L6.276 19.3875C8.05235 20.2752 10.0133 20.7305 11.999 20.7165C16.4641 20.6738 20.6102 18.3952 23.0398 14.6487C24.3201 12.7684 24.3201 10.2964 23.0398 8.41607ZM3.44521 12.9398C2.86632 12.0908 2.86632 10.974 3.44521 10.125C5.29889 7.18416 8.52272 5.38981 11.999 5.36409C13.1705 5.35838 14.3335 5.5627 15.433 5.96724L13.5692 7.83001C11.525 6.96222 9.16438 7.91592 8.29663 9.96011C7.87037 10.9642 7.87037 12.0985 8.29663 13.1026L5.84682 15.5535C4.92262 14.8045 4.11349 13.9238 3.44521 12.9398ZM20.5528 12.9398C18.699 15.8806 15.4752 17.675 11.999 17.7007C10.8275 17.7064 9.66443 17.5021 8.56499 17.0975L10.4287 15.2338C12.4729 16.1016 14.8336 15.1479 15.7013 13.1037C16.1276 12.0996 16.1276 10.9653 15.7013 9.96119L18.1512 7.51138C19.0753 8.26038 19.8844 9.14099 20.5527 10.1251C21.1317 10.974 21.1317 12.0908 20.5528 12.9398Z" fill="#534139"/>
</svg>
