<svg width="80" height="80" viewBox="0 0 80 80" fill="none" xmlns="http://www.w3.org/2000/svg">
<circle cx="40" cy="40" r="40" fill="#534139"/>
<g clip-path="url(#clip0_1233_589)">
<path d="M58.75 17.084H21.25C19.5924 17.084 18.0027 17.7425 16.8306 18.9146C15.6585 20.0867 15 21.6764 15 23.334V62.9173H65V23.334C65 21.6764 64.3415 20.0867 63.1694 18.9146C61.9973 17.7425 60.4076 17.084 58.75 17.084V17.084ZM58.2792 23.334L43.4146 38.1986C42.4948 39.077 41.2719 39.5672 40 39.5672C38.7281 39.5672 37.5052 39.077 36.5854 38.1986L21.7208 23.334H58.2792ZM21.25 56.6673V31.7027L32.1646 42.6173C33.1932 43.6464 34.4146 44.4628 35.7588 45.0198C37.1031 45.5767 38.5439 45.8634 39.999 45.8634C41.454 45.8634 42.8948 45.5767 44.2391 45.0198C45.5833 44.4628 46.8047 43.6464 47.8333 42.6173L58.75 31.7027V56.6673H21.25Z" fill="white"/>
</g>
<defs>
<clipPath id="clip0_1233_589">
<rect width="50" height="50" fill="white" transform="translate(15 15)"/>
</clipPath>
</defs>
</svg>
