<svg width="30" height="30" viewBox="0 0 30 30" fill="none" xmlns="http://www.w3.org/2000/svg">
<path d="M21.75 1.5C25.4243 1.5 28.5 4.6465 28.5 8.99219C28.4999 11.6213 27.424 14.1115 25.2842 16.9648C23.6646 19.1244 21.5079 21.4005 18.8896 24.0254L16.1201 26.7754L16.1182 26.7773L15 27.8867L13.8818 26.7773L13.8799 26.7754L11.1104 24.0254C8.49208 21.4005 6.33538 19.1244 4.71582 16.9648C2.57599 14.1115 1.5001 11.6213 1.5 8.99219C1.5 4.6465 4.57569 1.5 8.25 1.5C10.3563 1.5 12.4424 2.57732 13.8213 4.32812L15 5.8252L16.1787 4.32812C17.5576 2.57732 19.6437 1.5 21.75 1.5Z" fill="#D9D9D9"/>
<path d="M21.75 1.5C25.4243 1.5 28.5 4.6465 28.5 8.99219C28.4999 11.6213 27.424 14.1115 25.2842 16.9648C23.6646 19.1244 21.5079 21.4005 18.8896 24.0254L16.1201 26.7754L16.1182 26.7773L15 27.8867L13.8818 26.7773L13.8799 26.7754L11.1104 24.0254C8.49208 21.4005 6.33538 19.1244 4.71582 16.9648C2.57599 14.1115 1.5001 11.6213 1.5 8.99219C1.5 4.6465 4.57569 1.5 8.25 1.5C10.3563 1.5 12.4424 2.57732 13.8213 4.32812L15 5.8252L16.1787 4.32812C17.5576 2.57732 19.6437 1.5 21.75 1.5Z" fill="#534139"/>
<path d="M21.75 1.5C25.4243 1.5 28.5 4.6465 28.5 8.99219C28.4999 11.6213 27.424 14.1115 25.2842 16.9648C23.6646 19.1244 21.5079 21.4005 18.8896 24.0254L16.1201 26.7754L16.1182 26.7773L15 27.8867L13.8818 26.7773L13.8799 26.7754L11.1104 24.0254C8.49208 21.4005 6.33538 19.1244 4.71582 16.9648C2.57599 14.1115 1.5001 11.6213 1.5 8.99219C1.5 4.6465 4.57569 1.5 8.25 1.5C10.3563 1.5 12.4424 2.57732 13.8213 4.32812L15 5.8252L16.1787 4.32812C17.5576 2.57732 19.6437 1.5 21.75 1.5Z" stroke="#534139" stroke-width="3"/>
</svg>
