<svg width="18" height="18" viewBox="0 0 18 18" fill="none" xmlns="http://www.w3.org/2000/svg">
<g clip-path="url(#clip0_25_95)">
<path d="M8.99992 0.015625C6.99847 0.0180072 5.07969 0.814188 3.66452 2.2295C2.24934 3.64481 1.45336 5.56367 1.45117 7.56512C1.45117 11.5206 7.57567 16.8119 8.27617 17.4029L9.00142 18.0156L9.72667 17.4029C10.4257 16.8119 16.5517 11.5206 16.5517 7.56512C16.5495 5.56315 15.7531 3.64384 14.3373 2.22844C12.9214 0.813043 11.0019 0.0172131 8.99992 0.015625ZM8.99992 15.0479C6.70117 12.9539 3.69967 9.55188 3.69967 7.56512C3.69967 6.15941 4.25809 4.81127 5.25208 3.81728C6.24607 2.82329 7.59421 2.26488 8.99992 2.26487C10.4056 2.26488 11.7538 2.82329 12.7478 3.81728C13.7418 4.81127 14.3002 6.15941 14.3002 7.56512C14.3002 9.54813 11.2979 12.9516 8.99992 15.0479Z" fill="#1E1E1E"/>
<path d="M9.00006 9.7494C10.2415 9.7494 11.2478 8.74305 11.2478 7.50165C11.2478 6.26026 10.2415 5.25391 9.00006 5.25391C7.75867 5.25391 6.75232 6.26026 6.75232 7.50165C6.75232 8.74305 7.75867 9.7494 9.00006 9.7494Z" fill="#1E1E1E"/>
</g>
<defs>
<clipPath id="clip0_25_95">
<rect width="18" height="18" fill="white"/>
</clipPath>
</defs>
</svg>
