<svg width="50" height="50" viewBox="0 0 50 50" fill="none" xmlns="http://www.w3.org/2000/svg">
<g clip-path="url(#clip0_85_243)">
<path d="M43.75 2.08398H6.25C4.5924 2.08398 3.00268 2.74246 1.83058 3.91457C0.65848 5.08667 0 6.67638 0 8.33398L0 47.9173H50V8.33398C50 6.67638 49.3415 5.08667 48.1694 3.91457C46.9973 2.74246 45.4076 2.08398 43.75 2.08398ZM43.2792 8.33398L28.4146 23.1986C27.4948 24.077 26.2719 24.5672 25 24.5672C23.7281 24.5672 22.5052 24.077 21.5854 23.1986L6.72083 8.33398H43.2792ZM6.25 41.6673V16.7027L17.1646 27.6173C18.1932 28.6464 19.4146 29.4628 20.7588 30.0198C22.1031 30.5767 23.5439 30.8634 24.999 30.8634C26.454 30.8634 27.8948 30.5767 29.2391 30.0198C30.5833 29.4628 31.8047 28.6464 32.8333 27.6173L43.75 16.7027V41.6673H6.25Z" fill="black"/>
</g>
<defs>
<clipPath id="clip0_85_243">
<rect width="50" height="50" fill="white"/>
</clipPath>
</defs>
</svg>
