<svg width="24" height="24" viewBox="0 0 24 24" fill="none" xmlns="http://www.w3.org/2000/svg">
<g clip-path="url(#clip0_525_551)">
<path d="M23.0382 8.88383C20.6097 5.13707 16.4637 2.8583 11.999 2.81641C7.53424 2.8583 3.38824 5.13707 0.959815 8.88383C-0.319938 10.762 -0.319938 13.2319 0.959815 15.1101C3.38687 18.8592 7.53311 21.1403 11.999 21.1836C16.4637 21.1417 20.6097 18.8629 23.0382 15.1161C24.3206 13.2366 24.3206 10.7633 23.0382 8.88383ZM20.5533 13.4073C18.6992 16.348 15.4753 18.1422 11.999 18.1679C8.52266 18.1422 5.29873 16.348 3.44464 13.4073C2.86663 12.5581 2.86663 11.4418 3.44464 10.5927C5.29868 7.65195 8.52261 5.8578 11.999 5.83203C15.4753 5.85775 18.6992 7.65195 20.5533 10.5927C21.1313 11.4418 21.1313 12.5581 20.5533 13.4073Z" fill="#534139"/>
<path d="M11.9993 16.0201C14.22 16.0201 16.0201 14.22 16.0201 11.9993C16.0201 9.77869 14.22 7.97852 11.9993 7.97852C9.77869 7.97852 7.97852 9.77869 7.97852 11.9993C7.97852 14.22 9.77869 16.0201 11.9993 16.0201Z" fill="#534139"/>
</g>
<defs>
<clipPath id="clip0_525_551">
<rect width="24" height="24" fill="white"/>
</clipPath>
</defs>
</svg>
