<svg width="34" height="34" viewBox="0 0 34 34" fill="none" xmlns="http://www.w3.org/2000/svg">
<path d="M8.61182 31.8757C8.61231 31.3123 8.83652 30.7722 9.23515 30.3741L20.1038 19.5054C20.4328 19.1765 20.6938 18.786 20.8718 18.3563C21.0498 17.9265 21.1415 17.4659 21.1415 17.0007C21.1415 16.5355 21.0498 16.0749 20.8718 15.6452C20.6938 15.2154 20.4328 14.8249 20.1038 14.4961L9.24932 3.63447C8.86223 3.23369 8.64804 2.69691 8.65288 2.13974C8.65773 1.58257 8.88121 1.04959 9.2752 0.655601C9.66919 0.261609 10.2022 0.0381251 10.7593 0.0332835C11.3165 0.0284418 11.8533 0.24263 12.2541 0.629716L23.1086 11.4828C24.5681 12.9452 25.3878 14.9269 25.3878 16.9929C25.3878 19.059 24.5681 21.0407 23.1086 22.503L12.2399 33.3717C11.9431 33.6687 11.5651 33.8711 11.1534 33.9534C10.7417 34.0357 10.3149 33.9942 9.92675 33.8342C9.53863 33.6741 9.2066 33.4027 8.97258 33.0541C8.73856 32.7056 8.61302 32.2955 8.61182 31.8757Z" fill="#534139"/>
</svg>
