<svg width="50" height="50" viewBox="0 0 50 50" fill="none" xmlns="http://www.w3.org/2000/svg">
<g clip-path="url(#clip0_85_217)">
<path d="M25 0.0429688C19.4404 0.049586 14.1105 2.2612 10.1794 6.19262C6.2484 10.124 4.03731 15.4542 4.03125 21.0138C4.03125 32.0013 21.0438 46.6992 22.9896 48.3409L25.0042 50.043L27.0187 48.3409C28.9604 46.6992 45.9771 32.0013 45.9771 21.0138C45.971 15.4528 43.7588 10.1213 39.826 6.18968C35.8931 2.25802 30.561 0.0473803 25 0.0429688V0.0429688ZM25 41.7992C18.6146 35.9825 10.2771 26.5326 10.2771 21.0138C10.2771 17.109 11.8282 13.3642 14.5893 10.6031C17.3504 7.84204 21.0952 6.29089 25 6.29089C28.9048 6.29089 32.6496 7.84204 35.4107 10.6031C38.1718 13.3642 39.7229 17.109 39.7229 21.0138C39.7229 26.5221 31.3833 35.9763 25 41.7992Z" fill="black"/>
<path d="M24.9996 27.0802C28.4479 27.0802 31.2433 24.2848 31.2433 20.8365C31.2433 17.3882 28.4479 14.5928 24.9996 14.5928C21.5513 14.5928 18.7559 17.3882 18.7559 20.8365C18.7559 24.2848 21.5513 27.0802 24.9996 27.0802Z" fill="black"/>
</g>
<defs>
<clipPath id="clip0_85_217">
<rect width="50" height="50" fill="white"/>
</clipPath>
</defs>
</svg>
