<svg width="34" height="34" viewBox="0 0 34 34" fill="none" xmlns="http://www.w3.org/2000/svg">
<path d="M25.3878 2.13182C25.3873 2.69522 25.1631 3.23536 24.7644 3.63349L13.8958 14.5022C13.5668 14.831 13.3058 15.2215 13.1278 15.6513C12.9497 16.081 12.8581 16.5416 12.8581 17.0068C12.8581 17.472 12.9497 17.9326 13.1278 18.3624C13.3058 18.7921 13.5668 19.1826 13.8958 19.5115L24.7503 30.366C25.1374 30.7668 25.3515 31.3035 25.3467 31.8607C25.3419 32.4179 25.1184 32.9509 24.7244 33.3449C24.3304 33.7388 23.7974 33.9623 23.2402 33.9672C22.6831 33.972 22.1463 33.7578 21.7455 33.3707L10.891 22.5247C9.43151 21.0624 8.61182 19.0807 8.61182 17.0146C8.61182 14.9485 9.43151 12.9669 10.891 11.5045L21.7597 0.62874C22.0569 0.331359 22.4356 0.128818 22.8479 0.0467443C23.2603 -0.035329 23.6877 0.00675469 24.0761 0.16767C24.4645 0.328586 24.7965 0.601101 25.0299 0.950733C25.2634 1.30036 25.388 1.7114 25.3878 2.13182Z" fill="#534139"/>
</svg>
