<svg width="50" height="50" viewBox="0 0 50 50" fill="none" xmlns="http://www.w3.org/2000/svg">
<rect width="50" height="50" rx="9" fill="#534139"/>
<g clip-path="url(#clip0_1515_568)">
<path d="M21.2593 13.9225C20.7694 13.6557 20.2072 13.5634 19.6611 13.66C19.1149 13.7566 18.6157 14.0366 18.2418 14.4562C17.7975 14.9673 17.5671 15.6373 17.6002 16.3218L17.7078 21.1372L13.1247 26.053L17.917 30.7591L18.023 35.6313C18.0284 35.9661 18.0985 36.2965 18.2293 36.6035C18.36 36.9105 18.5487 37.1879 18.7845 37.4196C18.9396 37.5718 19.113 37.7029 19.3006 37.8097C19.6801 38.0308 20.1097 38.1447 20.5458 38.14C20.9819 38.1352 21.4088 38.0119 21.7831 37.7826L42.2071 25.3999L21.2593 13.9225ZM20.6936 17.2215L33.139 24.0431L18.9771 24.3569L20.8055 22.3957L20.6936 17.2215ZM21.0751 34.5259L20.9599 29.3689L19.0462 27.4896L33.2 27.1723L21.0751 34.5259Z" fill="white"/>
</g>
<defs>
<clipPath id="clip0_1515_568">
<rect width="25" height="25" fill="white" transform="matrix(0.713491 0.700664 -0.681917 0.731429 24.3589 7.89453)"/>
</clipPath>
</defs>
</svg>
