<svg width="50" height="50" viewBox="0 0 50 50" fill="none" xmlns="http://www.w3.org/2000/svg">
<circle cx="25" cy="25" r="25" fill="#534139"/>
<g clip-path="url(#clip0_746_750)">
<path d="M25 39.3275L23.9175 38.5625C22.4925 37.555 9.99995 28.4788 9.99995 20.1875C9.91913 17.8644 10.7613 15.6037 12.3423 13.8997C13.9234 12.1956 16.1148 11.1868 18.4375 11.0938C19.7195 11.1063 20.9808 11.419 22.1204 12.0065C23.26 12.5941 24.2461 13.4404 25 14.4775C25.7538 13.4404 26.7399 12.5941 27.8795 12.0065C29.0191 11.419 30.2804 11.1063 31.5625 11.0938C33.8851 11.1868 36.0765 12.1956 37.6576 13.8997C39.2386 15.6037 40.0808 17.8644 40 20.1875C40 28.4788 27.5075 37.555 26.0825 38.5625L25 39.3275ZM18.4375 14.8438C17.1099 14.9378 15.8731 15.5517 14.9954 16.5522C14.1178 17.5527 13.6703 18.859 13.75 20.1875C13.75 25.0825 21.0787 31.7 25 34.7013C28.9212 31.7013 36.25 25.0825 36.25 20.1875C36.3297 18.859 35.8821 17.5527 35.0045 16.5522C34.1269 15.5517 32.89 14.9378 31.5625 14.8438C30.2349 14.9378 28.9981 15.5517 28.1204 16.5522C27.2428 17.5527 26.7953 18.859 26.875 20.1875H23.125C23.2046 18.859 22.7571 17.5527 21.8795 16.5522C21.0018 15.5517 19.765 14.9378 18.4375 14.8438Z" fill="white"/>
</g>
<defs>
<clipPath id="clip0_746_750">
<rect width="30" height="30" fill="white" transform="translate(10 10)"/>
</clipPath>
</defs>
</svg>
