<svg width="30" height="30" viewBox="0 0 30 30" fill="none" xmlns="http://www.w3.org/2000/svg">
<g clip-path="url(#clip0_20_213)">
<path d="M15 0C10.9228 0 10.4147 0.0196875 8.81905 0.0871875C7.21686 0.165938 6.13311 0.414375 5.17686 0.785625C4.17609 1.16354 3.26973 1.75509 2.52092 2.51906C1.75577 3.2669 1.16404 4.17354 0.787487 5.175C0.416237 6.13125 0.167799 7.215 0.0890491 8.81719C0.0168616 10.4138 0.00186157 10.9209 0.00186157 14.9981C0.00186157 19.0753 0.0215491 19.5834 0.0890491 21.1791C0.167799 22.7766 0.416237 23.865 0.787487 24.8213C1.1654 25.822 1.75695 26.7284 2.52092 27.4772C3.26876 28.2423 4.1754 28.8341 5.17686 29.2106C6.13311 29.5772 7.22155 29.8303 8.81905 29.9091C10.4156 29.9813 10.9228 29.9963 15 29.9963C19.0772 29.9963 19.5853 29.9766 21.1809 29.9091C22.7784 29.8303 23.8669 29.5763 24.8231 29.2106C25.8239 28.8327 26.7302 28.2412 27.4791 27.4772C28.2466 26.7313 28.8387 25.8241 29.2125 24.8213C29.5791 23.865 29.8322 22.7766 29.9109 21.1791C29.9831 19.5825 29.9981 19.0753 29.9981 14.9981C29.9981 10.9209 29.9784 10.4128 29.9109 8.81719C29.8322 7.21969 29.5781 6.12563 29.2125 5.175C28.8346 4.17422 28.243 3.26787 27.4791 2.51906C26.7332 1.75151 25.826 1.15941 24.8231 0.785625C23.8669 0.414375 22.7784 0.165938 21.1809 0.0871875C19.5844 0.015 19.0772 0 15 0ZM15 2.7C19.0041 2.7 19.4822 2.71969 21.0647 2.78719C22.5244 2.85563 23.3194 3.09938 23.8472 3.30563C24.4995 3.5468 25.0901 3.93013 25.5759 4.42781C26.0738 4.91076 26.4559 5.50019 26.6934 6.15188C26.8997 6.67969 27.1434 7.47469 27.2119 8.93438C27.2794 10.5169 27.299 10.9959 27.299 14.9991C27.299 19.0022 27.2794 19.4813 27.2062 21.0638C27.1275 22.5234 26.8837 23.3184 26.6784 23.8463C26.3944 24.5503 26.0775 25.0425 25.5544 25.575C25.067 26.0698 24.4768 26.4513 23.8256 26.6925C23.3044 26.8988 22.4981 27.1425 21.0328 27.2109C19.4419 27.2784 18.9731 27.2981 14.9587 27.2981C10.9444 27.2981 10.4766 27.2784 8.88374 27.2053C7.42405 27.1266 6.61874 26.8828 6.09092 26.6775C5.37842 26.3934 4.88999 26.0766 4.36686 25.5534C3.83905 25.0256 3.50342 24.5231 3.24467 23.8247C3.03467 23.3034 2.79467 22.4972 2.71686 21.0319C2.66342 19.4597 2.63811 18.9722 2.63811 14.9766C2.63811 10.9828 2.66342 10.4944 2.71686 8.9025C2.79467 7.43719 3.03467 6.63281 3.24467 6.10969C3.50342 5.39625 3.83999 4.90875 4.36686 4.38094C4.88905 3.85875 5.37842 3.52125 6.09092 3.25688C6.61874 3.05156 7.40436 2.80781 8.86968 2.73469C10.4606 2.6775 10.9294 2.65688 14.9381 2.65688L15 2.7ZM15 7.30031C13.9887 7.29994 12.9873 7.49885 12.053 7.88566C11.1187 8.27248 10.2697 8.83962 9.55466 9.55468C8.83961 10.2697 8.27247 11.1187 7.88565 12.053C7.49884 12.9874 7.29993 13.9888 7.3003 15C7.29993 16.0112 7.49884 17.0126 7.88565 17.947C8.27247 18.8813 8.83961 19.7303 9.55466 20.4453C10.2697 21.1604 11.1187 21.7275 12.053 22.1143C12.9873 22.5012 13.9887 22.7001 15 22.6997C16.0112 22.7001 17.0126 22.5012 17.947 22.1143C18.8813 21.7275 19.7303 21.1604 20.4453 20.4453C21.1604 19.7303 21.7275 18.8813 22.1143 17.947C22.5011 17.0126 22.7 16.0112 22.6997 15C22.7 13.9888 22.5011 12.9874 22.1143 12.053C21.7275 11.1187 21.1604 10.2697 20.4453 9.55468C19.7303 8.83962 18.8813 8.27248 17.947 7.88566C17.0126 7.49885 16.0112 7.29994 15 7.30031ZM15 19.9997C12.2362 19.9997 10.0003 17.7638 10.0003 15C10.0003 12.2363 12.2362 10.0003 15 10.0003C17.7637 10.0003 19.9997 12.2363 19.9997 15C19.9997 17.7638 17.7637 19.9997 15 19.9997ZM24.81 6.99281C24.8095 7.47062 24.6193 7.92869 24.2813 8.26638C23.9433 8.60407 23.485 8.79375 23.0072 8.79375C22.7709 8.79375 22.537 8.74722 22.3187 8.65681C22.1004 8.56639 21.9021 8.43388 21.735 8.26682C21.568 8.09976 21.4355 7.90143 21.3451 7.68316C21.2546 7.46489 21.2081 7.23094 21.2081 6.99469C21.2081 6.75843 21.2546 6.52449 21.3451 6.30622C21.4355 6.08794 21.568 5.88962 21.735 5.72256C21.9021 5.5555 22.1004 5.42298 22.3187 5.33257C22.537 5.24216 22.7709 5.19563 23.0072 5.19563C23.9981 5.19563 24.81 6.00188 24.81 6.99281Z" fill="white"/>
</g>
<defs>
<clipPath id="clip0_20_213">
<rect width="30" height="30" fill="white"/>
</clipPath>
</defs>
</svg>
