<svg width="30" height="30" viewBox="0 0 30 30" fill="none" xmlns="http://www.w3.org/2000/svg">
<g clip-path="url(#clip0_20_268)">
<path d="M26.25 30.0007H22.5V23.7507C22.5 23.0877 22.2366 22.4518 21.7678 21.983C21.2989 21.5141 20.663 21.2507 20 21.2507H10C9.33696 21.2507 8.70107 21.5141 8.23223 21.983C7.76339 22.4518 7.5 23.0877 7.5 23.7507V30.0007H3.75V23.7507C3.75198 22.0937 4.4111 20.5052 5.58277 19.3335C6.75445 18.1618 8.34301 17.5027 10 17.5007H20C21.657 17.5027 23.2456 18.1618 24.4172 19.3335C25.5889 20.5052 26.248 22.0937 26.25 23.7507V30.0007Z" fill="#1E1E1E"/>
<path d="M15.0001 14.9999C13.5167 14.9999 12.0667 14.56 10.8333 13.7359C9.59992 12.9118 8.63863 11.7405 8.07097 10.37C7.50331 8.99956 7.35479 7.49156 7.64417 6.0367C7.93356 4.58185 8.64787 3.24547 9.69676 2.19658C10.7457 1.14769 12.082 0.433381 13.5369 0.143992C14.9917 -0.145397 16.4997 0.00312757 17.8702 0.570785C19.2406 1.13844 20.412 2.09974 21.2361 3.3331C22.0602 4.56647 22.5001 6.01652 22.5001 7.49988C22.4981 9.4884 21.7073 11.3949 20.3012 12.801C18.8951 14.2071 16.9886 14.9979 15.0001 14.9999V14.9999ZM15.0001 3.74988C14.2584 3.74988 13.5334 3.96981 12.9167 4.38187C12.3 4.79393 11.8193 5.3796 11.5355 6.06482C11.2517 6.75004 11.1774 7.50404 11.3221 8.23147C11.4668 8.9589 11.824 9.62709 12.3484 10.1515C12.8729 10.676 13.541 11.0331 14.2685 11.1778C14.9959 11.3225 15.7499 11.2483 16.4351 10.9644C17.1203 10.6806 17.706 10.2 18.1181 9.58327C18.5301 8.96659 18.7501 8.24156 18.7501 7.49988C18.7501 6.50532 18.355 5.55149 17.6517 4.84823C16.9485 4.14497 15.9946 3.74988 15.0001 3.74988Z" fill="#1E1E1E"/>
</g>
<defs>
<clipPath id="clip0_20_268">
<rect width="30" height="30" fill="white"/>
</clipPath>
</defs>
</svg>
