<svg width="30" height="30" viewBox="0 0 30 30" fill="none" xmlns="http://www.w3.org/2000/svg">
<g clip-path="url(#clip0_20_255)">
<path d="M15 29.3271L13.9175 28.5621C12.4925 27.5546 -4.72412e-05 18.4784 -4.72412e-05 10.1871C-0.080872 7.864 0.761288 5.60335 2.34235 3.89931C3.92341 2.19528 6.11478 1.18647 8.43745 1.09338C9.71953 1.10598 10.9808 1.41859 12.1204 2.00617C13.26 2.59376 14.2461 3.44 15 4.47713C15.7538 3.44 16.7399 2.59376 17.8795 2.00617C19.0191 1.41859 20.2804 1.10598 21.5625 1.09338C23.8851 1.18647 26.0765 2.19528 27.6576 3.89931C29.2386 5.60335 30.0808 7.864 30 10.1871C30 18.4784 17.5075 27.5546 16.0825 28.5621L15 29.3271ZM8.43745 4.84338C7.10991 4.93745 5.87306 5.55137 4.99543 6.55186C4.1178 7.55236 3.67026 8.85865 3.74995 10.1871C3.74995 15.0821 11.0787 21.6996 15 24.7009C18.9212 21.7009 26.25 15.0821 26.25 10.1871C26.3297 8.85865 25.8821 7.55236 25.0045 6.55186C24.1268 5.55137 22.89 4.93745 21.5625 4.84338C20.2349 4.93745 18.9981 5.55137 18.1204 6.55186C17.2428 7.55236 16.7953 8.85865 16.875 10.1871H13.125C13.2047 8.85865 12.7571 7.55236 11.8795 6.55186C11.0018 5.55137 9.76499 4.93745 8.43745 4.84338Z" fill="#1E1E1E"/>
</g>
<defs>
<clipPath id="clip0_20_255">
<rect width="30" height="30" fill="white"/>
</clipPath>
</defs>
</svg>
