<svg width="100" height="100" viewBox="0 0 100 100" fill="none" xmlns="http://www.w3.org/2000/svg">
<g clip-path="url(#clip0_20_347)">
<path d="M87.4999 48.1467V41.6426C87.4999 31.697 83.5491 22.1587 76.5164 15.1261C69.4838 8.09346 59.9456 4.14258 49.9999 4.14258C40.0543 4.14258 30.516 8.09346 23.4834 15.1261C16.4508 22.1587 12.4999 31.697 12.4999 41.6426V48.1467C8.76494 49.9496 5.61225 52.7665 3.40191 56.2758C1.19158 59.7851 0.0127105 63.8452 -6.10352e-05 67.9926L-6.10352e-05 69.5092C0.00655589 75.384 2.34321 81.0162 6.49727 85.1703C10.6513 89.3243 16.2835 91.661 22.1583 91.6676H33.3333V45.8342H24.9999V41.6426C24.9999 35.0122 27.6339 28.6533 32.3223 23.9649C37.0107 19.2765 43.3695 16.6426 49.9999 16.6426C56.6303 16.6426 62.9892 19.2765 67.6776 23.9649C72.366 28.6533 74.9999 35.0122 74.9999 41.6426V45.8342H66.6666V79.1676H54.1666V91.6676H77.8416C83.7163 91.661 89.3485 89.3243 93.5026 85.1703C97.6567 81.0162 99.9933 75.384 99.9999 69.5092V67.9926C99.9872 63.8452 98.8083 59.7851 96.598 56.2758C94.3876 52.7665 91.2349 49.9496 87.4999 48.1467ZM20.8333 79.0759C18.5216 78.7531 16.4047 77.6051 14.8731 75.8438C13.3415 74.0825 12.4986 71.8267 12.4999 69.4926V67.9759C12.4986 65.6418 13.3415 63.386 14.8731 61.6247C16.4047 59.8634 18.5216 58.7154 20.8333 58.3926V79.0759ZM87.4999 69.4926C87.5012 71.8267 86.6583 74.0825 85.1268 75.8438C83.5952 77.6051 81.4783 78.7531 79.1666 79.0759V58.4259C81.4783 58.7487 83.5952 59.8967 85.1268 61.658C86.6583 63.4193 87.5012 65.6752 87.4999 68.0092V69.4926Z" fill="#1E1E1E"/>
</g>
<defs>
<clipPath id="clip0_20_347">
<rect width="100" height="100" fill="white"/>
</clipPath>
</defs>
</svg>
