<svg width="19" height="19" viewBox="0 0 19 19" fill="none" xmlns="http://www.w3.org/2000/svg">
<g clip-path="url(#clip0_20_167)">
<path d="M16.4519 0.783691H2.35028C1.72695 0.783691 1.12914 1.03131 0.688381 1.47207C0.247618 1.91283 0 2.51064 0 3.13397L0 18.0191H18.8022V3.13397C18.8022 2.51064 18.5546 1.91283 18.1138 1.47207C17.6731 1.03131 17.0753 0.783691 16.4519 0.783691V0.783691ZM16.2749 3.13397L10.6851 8.72372C10.3393 9.05406 9.8794 9.23839 9.40111 9.23839C8.92283 9.23839 8.46295 9.05406 8.11708 8.72372L2.52733 3.13397H16.2749ZM2.35028 15.6688V6.28099L6.45465 10.3854C6.84147 10.7724 7.30075 11.0793 7.80625 11.2888C8.31174 11.4982 8.85355 11.606 9.40072 11.606C9.94789 11.606 10.4897 11.4982 10.9952 11.2888C11.5007 11.0793 11.96 10.7724 12.3468 10.3854L16.4519 6.28099V15.6688H2.35028Z" fill="#F7F2EF"/>
</g>
<defs>
<clipPath id="clip0_20_167">
<rect width="18.8022" height="18.8022" fill="white"/>
</clipPath>
</defs>
</svg>
