<svg width="30" height="30" viewBox="0 0 30 30" fill="none" xmlns="http://www.w3.org/2000/svg">
<g clip-path="url(#clip0_20_253)">
<path d="M23.6253 20.9708C25.621 18.3039 26.5322 14.9799 26.1757 11.668C25.8191 8.3562 24.2212 5.30237 21.7036 3.12128C19.186 0.94019 15.9356 -0.20621 12.6068 -0.0871565C9.27792 0.0318969 6.11774 1.40756 3.76238 3.76293C1.40702 6.11829 0.0313476 9.27847 -0.0877058 12.6073C-0.206759 15.9362 0.939641 19.1866 3.12073 21.7042C5.30182 24.2218 8.35565 25.8197 11.6675 26.1762C14.9793 26.5328 18.3033 25.6215 20.9703 23.6258L27.3453 30.0008L30.0003 27.3508L23.6253 20.9708ZM13.1253 22.5008C11.2711 22.5008 9.45854 21.951 7.91683 20.9209C6.37512 19.8907 5.1735 18.4266 4.46393 16.7135C3.75436 15.0004 3.5687 13.1154 3.93044 11.2969C4.29217 9.47831 5.18506 7.80784 6.49617 6.49672C7.80729 5.18561 9.47776 4.29272 11.2963 3.93099C13.1149 3.56925 14.9999 3.75491 16.713 4.46448C18.426 5.17405 19.8902 6.37567 20.9203 7.91738C21.9505 9.45909 22.5003 11.2716 22.5003 13.1258C22.498 15.6115 21.5095 17.9948 19.7519 19.7524C17.9942 21.5101 15.611 22.4985 13.1253 22.5008Z" fill="#1E1E1E"/>
</g>
<defs>
<clipPath id="clip0_20_253">
<rect width="30" height="30" fill="white"/>
</clipPath>
</defs>
</svg>
