<svg width="149" height="58" viewBox="0 0 149 58" fill="none" xmlns="http://www.w3.org/2000/svg">
<path d="M21.032 32V30.176C21.6293 30.176 22.1093 30.0053 22.472 29.664C22.8347 29.3227 23.1333 28.8747 23.368 28.32C23.6027 27.744 23.848 27.104 24.104 26.4L30.472 9.024H32.2L39.144 26.72C39.272 27.0827 39.4427 27.5947 39.656 28.256C39.8693 28.9173 39.9867 29.4933 40.008 29.984C40.3707 29.9627 40.7227 29.9413 41.064 29.92C41.4053 29.8987 41.704 29.888 41.96 29.888V32H33.8V30.24C34.4613 30.24 34.9093 30.1013 35.144 29.824C35.3787 29.5467 35.4747 29.184 35.432 28.736C35.4107 28.288 35.304 27.8293 35.112 27.36L34.312 25.184L26.888 25.312L26.184 27.456C26.056 27.8187 25.9067 28.2347 25.736 28.704C25.5653 29.152 25.3947 29.5573 25.224 29.92C25.608 29.8987 26.024 29.8773 26.472 29.856C26.9413 29.8347 27.3147 29.824 27.592 29.824V32H21.032ZM27.592 23.264H33.608L31.88 18.56C31.624 17.8347 31.3787 17.1093 31.144 16.384C30.9307 15.6373 30.7493 14.9547 30.6 14.336H30.536C30.408 14.7627 30.248 15.3173 30.056 16C29.8853 16.6827 29.64 17.4613 29.32 18.336L27.592 23.264ZM43.6015 32V30.24C44.1988 30.2187 44.6575 30.1227 44.9775 29.952C45.2975 29.76 45.5215 29.44 45.6495 28.992C45.7775 28.5227 45.8415 27.8827 45.8415 27.072V14.304C45.8415 13.7707 45.8522 13.2587 45.8735 12.768C45.9162 12.2773 45.9482 11.8933 45.9695 11.616C45.6068 11.6373 45.1908 11.6587 44.7215 11.68C44.2522 11.68 43.8788 11.6907 43.6015 11.712V9.6H52.1135V11.36C51.5375 11.3813 51.0788 11.488 50.7375 11.68C50.4175 11.8507 50.1935 12.16 50.0655 12.608C49.9375 13.056 49.8735 13.696 49.8735 14.528V27.264C49.8735 27.84 49.8628 28.3733 49.8415 28.864C49.8202 29.3333 49.7882 29.7067 49.7455 29.984L54.6095 29.952C55.8895 29.952 56.8815 29.5253 57.5855 28.672C58.2895 27.7973 58.6415 26.464 58.6415 24.672H60.4335L60.2415 32H43.6015ZM71.1448 11.36C70.5688 11.3813 70.1101 11.488 69.7688 11.68C69.4488 11.8507 69.2248 12.16 69.0968 12.608C68.9688 13.056 68.9048 13.696 68.9048 14.528V27.232C68.9048 27.808 68.8941 28.3413 68.8728 28.832C68.8514 29.3227 68.8194 29.7067 68.7768 29.984C69.1394 29.9627 69.5554 29.9413 70.0248 29.92C70.4941 29.8987 70.8674 29.888 71.1448 29.888V32H62.6328V30.24C63.2301 30.2187 63.6888 30.1227 64.0088 29.952C64.3288 29.76 64.5528 29.44 64.6808 28.992C64.8088 28.5227 64.8728 27.8827 64.8728 27.072V14.304C64.8728 13.7707 64.8834 13.2587 64.9048 12.768C64.9474 12.2773 64.9794 11.8933 65.0008 11.616C64.6381 11.6373 64.2221 11.6587 63.7528 11.68C63.2834 11.68 62.9101 11.6907 62.6328 11.712V9.6H71.1448V11.36ZM79.4365 32V30.24C80.0338 30.2187 80.4925 30.112 80.8125 29.92C81.1325 29.728 81.3565 29.408 81.4845 28.96C81.6125 28.512 81.6765 27.8827 81.6765 27.072V24L75.9165 14.848C75.5325 14.2507 75.2125 13.6533 74.9565 13.056C74.7005 12.4587 74.5512 11.9787 74.5085 11.616C74.1672 11.6373 73.8685 11.6587 73.6125 11.68C73.3565 11.68 73.0898 11.6907 72.8125 11.712V9.6H81.8685V11.36C81.1218 11.3387 80.5458 11.4347 80.1405 11.648C79.7565 11.8613 79.5432 12.1813 79.5005 12.608C79.4792 13.0133 79.6605 13.536 80.0445 14.176L82.5085 18.176C82.6365 18.3893 82.8072 18.6773 83.0205 19.04C83.2338 19.3813 83.4472 19.7547 83.6605 20.16C83.8952 20.544 84.0978 20.896 84.2685 21.216H84.3005C84.4498 20.896 84.6418 20.4907 84.8765 20C85.1325 19.5093 85.4312 18.9333 85.7725 18.272L87.7885 14.368C87.8952 14.1333 88.0338 13.8453 88.2045 13.504C88.3965 13.1627 88.5992 12.8213 88.8125 12.48C89.0258 12.1173 89.2285 11.8187 89.4205 11.584C89.0578 11.6053 88.6205 11.6267 88.1085 11.648C87.6178 11.6693 87.2232 11.6907 86.9245 11.712V9.6H93.8365V11.36C92.9832 11.4453 92.2685 11.7653 91.6925 12.32C91.1165 12.8747 90.4978 13.7707 89.8365 15.008C89.1325 16.352 88.4285 17.6853 87.7245 19.008C87.0418 20.3093 86.3698 21.6 85.7085 22.88C85.7085 23.2213 85.7085 23.5947 85.7085 24C85.7085 24.4053 85.7085 24.8213 85.7085 25.248C85.7085 25.6747 85.7085 26.0693 85.7085 26.432C85.7085 26.7733 85.7085 27.04 85.7085 27.232C85.7085 27.808 85.6978 28.3413 85.6765 28.832C85.6552 29.3227 85.6232 29.7067 85.5805 29.984C85.9645 29.9627 86.4125 29.9413 86.9245 29.92C87.4578 29.8987 87.8738 29.888 88.1725 29.888V32H79.4365ZM92.0945 32V30.176C92.6918 30.176 93.1718 30.0053 93.5345 29.664C93.8972 29.3227 94.1958 28.8747 94.4305 28.32C94.6652 27.744 94.9105 27.104 95.1665 26.4L101.535 9.024H103.263L110.207 26.72C110.335 27.0827 110.505 27.5947 110.719 28.256C110.932 28.9173 111.049 29.4933 111.071 29.984C111.433 29.9627 111.785 29.9413 112.127 29.92C112.468 29.8987 112.767 29.888 113.023 29.888V32H104.863V30.24C105.524 30.24 105.972 30.1013 106.207 29.824C106.441 29.5467 106.537 29.184 106.495 28.736C106.473 28.288 106.367 27.8293 106.175 27.36L105.375 25.184L97.9505 25.312L97.2465 27.456C97.1185 27.8187 96.9692 28.2347 96.7985 28.704C96.6278 29.152 96.4572 29.5573 96.2865 29.92C96.6705 29.8987 97.0865 29.8773 97.5345 29.856C98.0038 29.8347 98.3772 29.824 98.6545 29.824V32H92.0945ZM98.6545 23.264H104.671L102.943 18.56C102.687 17.8347 102.441 17.1093 102.207 16.384C101.993 15.6373 101.812 14.9547 101.663 14.336H101.599C101.471 14.7627 101.311 15.3173 101.119 16C100.948 16.6827 100.703 17.4613 100.383 18.336L98.6545 23.264Z" fill="white"/>
<path d="M6.12 46.84H4.08V56H1.78V46.84H0.48V44.98H1.78V44.2C1.78 42.9333 2.11333 42.0133 2.78 41.44C3.46 40.8533 4.52 40.56 5.96 40.56V42.46C5.26667 42.46 4.78 42.5933 4.5 42.86C4.22 43.1133 4.08 43.56 4.08 44.2V44.98H6.12V46.84ZM18.1206 44.98V56H15.8406V54.7C15.4806 55.1533 15.0073 55.5133 14.4206 55.78C13.8473 56.0333 13.234 56.16 12.5806 56.16C11.714 56.16 10.934 55.98 10.2406 55.62C9.56063 55.26 9.02063 54.7267 8.62063 54.02C8.23396 53.3133 8.04063 52.46 8.04063 51.46V44.98H10.3006V51.12C10.3006 52.1067 10.5473 52.8667 11.0406 53.4C11.534 53.92 12.2073 54.18 13.0606 54.18C13.914 54.18 14.5873 53.92 15.0806 53.4C15.5873 52.8667 15.8406 52.1067 15.8406 51.12V44.98H18.1206ZM23.4089 46.58C23.7422 46.02 24.1822 45.5867 24.7289 45.28C25.2889 44.96 25.9489 44.8 26.7089 44.8V47.16H26.1289C25.2356 47.16 24.5556 47.3867 24.0889 47.84C23.6356 48.2933 23.4089 49.08 23.4089 50.2V56H21.1289V44.98H23.4089V46.58ZM34.3647 44.8C35.2314 44.8 36.0047 44.98 36.6847 45.34C37.378 45.7 37.918 46.2333 38.3047 46.94C38.6914 47.6467 38.8847 48.5 38.8847 49.5V56H36.6247V49.84C36.6247 48.8533 36.378 48.1 35.8847 47.58C35.3914 47.0467 34.718 46.78 33.8647 46.78C33.0114 46.78 32.3314 47.0467 31.8247 47.58C31.3314 48.1 31.0847 48.8533 31.0847 49.84V56H28.8047V44.98H31.0847V46.24C31.458 45.7867 31.9314 45.4333 32.5047 45.18C33.0914 44.9267 33.7114 44.8 34.3647 44.8ZM42.953 43.52C42.5396 43.52 42.193 43.38 41.913 43.1C41.633 42.82 41.493 42.4733 41.493 42.06C41.493 41.6467 41.633 41.3 41.913 41.02C42.193 40.74 42.5396 40.6 42.953 40.6C43.353 40.6 43.693 40.74 43.973 41.02C44.253 41.3 44.393 41.6467 44.393 42.06C44.393 42.4733 44.253 42.82 43.973 43.1C43.693 43.38 43.353 43.52 42.953 43.52ZM44.073 44.98V56H41.793V44.98H44.073ZM49.7264 46.84V52.94C49.7264 53.3533 49.8197 53.6533 50.0064 53.84C50.2064 54.0133 50.5397 54.1 51.0064 54.1H52.4064V56H50.6064C49.5797 56 48.7931 55.76 48.2464 55.28C47.6997 54.8 47.4264 54.02 47.4264 52.94V46.84H46.1264V44.98H47.4264V42.24H49.7264V44.98H52.4064V46.84H49.7264ZM64.4878 44.98V56H62.2078V54.7C61.8478 55.1533 61.3745 55.5133 60.7878 55.78C60.2145 56.0333 59.6011 56.16 58.9478 56.16C58.0811 56.16 57.3011 55.98 56.6078 55.62C55.9278 55.26 55.3878 54.7267 54.9878 54.02C54.6011 53.3133 54.4078 52.46 54.4078 51.46V44.98H56.6678V51.12C56.6678 52.1067 56.9145 52.8667 57.4078 53.4C57.9011 53.92 58.5745 54.18 59.4278 54.18C60.2811 54.18 60.9545 53.92 61.4478 53.4C61.9545 52.8667 62.2078 52.1067 62.2078 51.12V44.98H64.4878ZM69.7761 46.58C70.1094 46.02 70.5494 45.5867 71.0961 45.28C71.6561 44.96 72.3161 44.8 73.0761 44.8V47.16H72.4961C71.6028 47.16 70.9228 47.3867 70.4561 47.84C70.0028 48.2933 69.7761 49.08 69.7761 50.2V56H67.4961V44.98H69.7761V46.58ZM85.2719 50.22C85.2719 50.6333 85.2452 51.0067 85.1919 51.34H76.7719C76.8385 52.22 77.1652 52.9267 77.7519 53.46C78.3385 53.9933 79.0585 54.26 79.9119 54.26C81.1385 54.26 82.0052 53.7467 82.5119 52.72H84.9719C84.6385 53.7333 84.0319 54.5667 83.1519 55.22C82.2852 55.86 81.2052 56.18 79.9119 56.18C78.8585 56.18 77.9119 55.9467 77.0719 55.48C76.2452 55 75.5919 54.3333 75.1119 53.48C74.6452 52.6133 74.4119 51.6133 74.4119 50.48C74.4119 49.3467 74.6385 48.3533 75.0919 47.5C75.5585 46.6333 76.2052 45.9667 77.0319 45.5C77.8719 45.0333 78.8319 44.8 79.9119 44.8C80.9519 44.8 81.8785 45.0267 82.6919 45.48C83.5052 45.9333 84.1385 46.5733 84.5919 47.4C85.0452 48.2133 85.2719 49.1533 85.2719 50.22ZM82.8919 49.5C82.8785 48.66 82.5785 47.9867 81.9919 47.48C81.4052 46.9733 80.6785 46.72 79.8119 46.72C79.0252 46.72 78.3519 46.9733 77.7919 47.48C77.2319 47.9733 76.8985 48.6467 76.7919 49.5H82.8919ZM96.7109 56.18C95.8443 56.18 95.0643 56.0267 94.3709 55.72C93.6909 55.4 93.1509 54.9733 92.7509 54.44C92.3509 53.8933 92.1376 53.2867 92.1109 52.62H94.4709C94.5109 53.0867 94.7309 53.48 95.1309 53.8C95.5443 54.1067 96.0576 54.26 96.6709 54.26C97.3109 54.26 97.8043 54.14 98.1509 53.9C98.5109 53.6467 98.6909 53.3267 98.6909 52.94C98.6909 52.5267 98.4909 52.22 98.0909 52.02C97.7043 51.82 97.0843 51.6 96.2309 51.36C95.4043 51.1333 94.7309 50.9133 94.2109 50.7C93.6909 50.4867 93.2376 50.16 92.8509 49.72C92.4776 49.28 92.2909 48.7 92.2909 47.98C92.2909 47.3933 92.4643 46.86 92.8109 46.38C93.1576 45.8867 93.6509 45.5 94.2909 45.22C94.9443 44.94 95.6909 44.8 96.5309 44.8C97.7843 44.8 98.7909 45.12 99.5509 45.76C100.324 46.3867 100.738 47.2467 100.791 48.34H98.5109C98.4709 47.8467 98.2709 47.4533 97.9109 47.16C97.5509 46.8667 97.0643 46.72 96.4509 46.72C95.8509 46.72 95.3909 46.8333 95.0709 47.06C94.7509 47.2867 94.5909 47.5867 94.5909 47.96C94.5909 48.2533 94.6976 48.5 94.9109 48.7C95.1243 48.9 95.3843 49.06 95.6909 49.18C95.9976 49.2867 96.4509 49.4267 97.0509 49.6C97.8509 49.8133 98.5043 50.0333 99.0109 50.26C99.5309 50.4733 99.9776 50.7933 100.351 51.22C100.724 51.6467 100.918 52.2133 100.931 52.92C100.931 53.5467 100.758 54.1067 100.411 54.6C100.064 55.0933 99.5709 55.48 98.9309 55.76C98.3043 56.04 97.5643 56.18 96.7109 56.18ZM106.055 46.84V52.94C106.055 53.3533 106.148 53.6533 106.335 53.84C106.535 54.0133 106.868 54.1 107.335 54.1H108.735V56H106.935C105.908 56 105.121 55.76 104.575 55.28C104.028 54.8 103.755 54.02 103.755 52.94V46.84H102.455V44.98H103.755V42.24H106.055V44.98H108.735V46.84H106.055ZM115.616 56.18C114.576 56.18 113.636 55.9467 112.796 55.48C111.956 55 111.296 54.3333 110.816 53.48C110.336 52.6133 110.096 51.6133 110.096 50.48C110.096 49.36 110.343 48.3667 110.836 47.5C111.329 46.6333 112.003 45.9667 112.856 45.5C113.709 45.0333 114.663 44.8 115.716 44.8C116.769 44.8 117.723 45.0333 118.576 45.5C119.429 45.9667 120.103 46.6333 120.596 47.5C121.089 48.3667 121.336 49.36 121.336 50.48C121.336 51.6 121.083 52.5933 120.576 53.46C120.069 54.3267 119.376 55 118.496 55.48C117.629 55.9467 116.669 56.18 115.616 56.18ZM115.616 54.2C116.203 54.2 116.749 54.06 117.256 53.78C117.776 53.5 118.196 53.08 118.516 52.52C118.836 51.96 118.996 51.28 118.996 50.48C118.996 49.68 118.843 49.0067 118.536 48.46C118.229 47.9 117.823 47.48 117.316 47.2C116.809 46.92 116.263 46.78 115.676 46.78C115.089 46.78 114.543 46.92 114.036 47.2C113.543 47.48 113.149 47.9 112.856 48.46C112.563 49.0067 112.416 49.68 112.416 50.48C112.416 51.6667 112.716 52.5867 113.316 53.24C113.929 53.88 114.696 54.2 115.616 54.2ZM125.87 46.58C126.203 46.02 126.643 45.5867 127.19 45.28C127.75 44.96 128.41 44.8 129.17 44.8V47.16H128.59C127.697 47.16 127.017 47.3867 126.55 47.84C126.097 48.2933 125.87 49.08 125.87 50.2V56H123.59V44.98H125.87V46.58ZM141.366 50.22C141.366 50.6333 141.339 51.0067 141.286 51.34H132.866C132.932 52.22 133.259 52.9267 133.846 53.46C134.432 53.9933 135.152 54.26 136.006 54.26C137.232 54.26 138.099 53.7467 138.606 52.72H141.066C140.732 53.7333 140.126 54.5667 139.246 55.22C138.379 55.86 137.299 56.18 136.006 56.18C134.952 56.18 134.006 55.9467 133.166 55.48C132.339 55 131.686 54.3333 131.206 53.48C130.739 52.6133 130.506 51.6133 130.506 50.48C130.506 49.3467 130.732 48.3533 131.186 47.5C131.652 46.6333 132.299 45.9667 133.126 45.5C133.966 45.0333 134.926 44.8 136.006 44.8C137.046 44.8 137.972 45.0267 138.786 45.48C139.599 45.9333 140.232 46.5733 140.686 47.4C141.139 48.2133 141.366 49.1533 141.366 50.22ZM138.986 49.5C138.972 48.66 138.672 47.9867 138.086 47.48C137.499 46.9733 136.772 46.72 135.906 46.72C135.119 46.72 134.446 46.9733 133.886 47.48C133.326 47.9733 132.992 48.6467 132.886 49.5H138.986Z" fill="white"/>
</svg>
