<svg width="80" height="80" viewBox="0 0 80 80" fill="none" xmlns="http://www.w3.org/2000/svg">
<circle cx="40" cy="40" r="40" fill="#534139"/>
<g clip-path="url(#clip0_1233_588)">
<path d="M65.0004 36.8333H58.7504C58.746 32.9669 57.2081 29.2602 54.4742 26.5262C51.7402 23.7923 48.0335 22.2544 44.1671 22.25V16C49.6906 16.0061 54.9861 18.2029 58.8918 22.1086C62.7975 26.0143 64.9944 31.3099 65.0004 36.8333ZM44.1671 26.4167V32.6667C45.2722 32.6667 46.332 33.1057 47.1134 33.8871C47.8948 34.6685 48.3338 35.7283 48.3338 36.8333H54.5838C54.5805 34.0717 53.4819 31.4241 51.5291 29.4713C49.5764 27.5185 46.9288 26.42 44.1671 26.4167ZM57.2192 62.3229L64.8129 54.7292L50.9775 40.8917L44.7921 47.0896C39.9948 44.8616 36.1461 41.0003 33.9338 36.1958L40.1088 30.0229L26.2713 16.1875L18.6796 23.7792C17.5004 24.9623 16.568 26.3679 15.9364 27.9143C15.3049 29.4607 14.9867 31.1171 15.0004 32.7875C15.0004 47.6854 33.315 66 48.2129 66C49.8828 66.0137 51.5387 65.6958 53.0848 65.0645C54.6308 64.4333 56.0361 63.5014 57.2192 62.3229ZM31.2692 30.0229L26.5442 34.75L27.3129 36.6646C28.7718 40.5646 31.0523 44.1052 33.9999 47.0463C36.9475 49.9874 40.4931 52.2601 44.3963 53.7104L46.2879 54.4313L50.9858 49.7313L55.9858 54.7313L52.8108 57.9083C52.2069 58.5036 51.4908 58.9731 50.704 59.2896C49.9172 59.6061 49.0755 59.7633 48.2275 59.7521C37.8108 59.75 21.2504 45.0292 21.2504 32.7875C21.2399 31.9395 21.3977 31.0977 21.7145 30.311C22.0313 29.5243 22.501 28.8082 23.0963 28.2042L26.2713 25.025L31.2692 30.0229Z" fill="white"/>
</g>
<defs>
<clipPath id="clip0_1233_588">
<rect width="50" height="50" fill="white" transform="translate(15 16)"/>
</clipPath>
</defs>
</svg>
