<svg width="18" height="18" viewBox="0 0 18 18" fill="none" xmlns="http://www.w3.org/2000/svg">
<g clip-path="url(#clip0_25_86)">
<path d="M18 7.5H15.75C15.7484 6.1081 15.1947 4.77367 14.2105 3.78944C13.2263 2.80522 11.8919 2.25159 10.5 2.25V0C12.4884 0.0021837 14.3948 0.793061 15.8009 2.19911C17.2069 3.60516 17.9978 5.51155 18 7.5ZM10.5 3.75V6C10.8978 6 11.2793 6.15804 11.5606 6.43934C11.8419 6.72065 12 7.10218 12 7.5H14.25C14.2488 6.5058 13.8533 5.55267 13.1503 4.84967C12.4473 4.14666 11.4942 3.75119 10.5 3.75ZM15.1987 16.6763L17.9325 13.9425L12.9517 8.961L10.725 11.1923C8.99796 10.3902 7.61243 9.00012 6.81597 7.2705L9.03897 5.04825L4.05747 0.0675L1.32447 2.8005C0.899977 3.22644 0.564305 3.73244 0.336936 4.28915C0.109568 4.84585 -0.0049702 5.44217 -2.98353e-05 6.0435C-2.98353e-05 11.4068 6.59322 18 11.9565 18C12.5576 18.0049 13.1538 17.8905 13.7103 17.6632C14.2669 17.436 14.7728 17.1005 15.1987 16.6763ZM5.85672 5.04825L4.15572 6.75L4.43247 7.43925C4.95766 8.84325 5.77866 10.1179 6.83978 11.1767C7.9009 12.2355 9.17732 13.0537 10.5825 13.5758L11.2635 13.8353L12.9547 12.1433L14.7547 13.9433L13.6117 15.087C13.3943 15.3013 13.1365 15.4703 12.8533 15.5843C12.57 15.6982 12.267 15.7548 11.9617 15.7508C8.21172 15.75 2.24997 10.4505 2.24997 6.0435C2.24619 5.7382 2.30298 5.43519 2.41703 5.15198C2.53109 4.86876 2.70016 4.61097 2.91447 4.3935L4.05747 3.249L5.85672 5.04825Z" fill="#1E1E1E"/>
</g>
<defs>
<clipPath id="clip0_25_86">
<rect width="18" height="18" fill="white"/>
</clipPath>
</defs>
</svg>
