<svg width="50" height="50" viewBox="0 0 50 50" fill="none" xmlns="http://www.w3.org/2000/svg">
<circle cx="25" cy="25" r="25" fill="#534139"/>
<g clip-path="url(#clip0_746_789)">
<path d="M40 40H31.25V36.25H36.25V31.25H40V40ZM40 14.375C40 13.2147 39.5391 12.1019 38.7186 11.2814C37.8981 10.4609 36.7853 10 35.625 10H31.25V13.75H35.625C35.7901 13.7523 35.9477 13.8188 36.0644 13.9356C36.1812 14.0523 36.2477 14.2099 36.25 14.375V18.75H40V14.375ZM18.75 36.25H13.75V31.25H10V40H18.75V36.25ZM13.75 14.375C13.75 14.2092 13.8158 14.0503 13.9331 13.9331C14.0503 13.8158 14.2092 13.75 14.375 13.75H18.75V10H14.375C13.2147 10 12.1019 10.4609 11.2814 11.2814C10.4609 12.1019 10 13.2147 10 14.375V18.75H13.75V14.375ZM30 25C30 24.0111 29.7068 23.0444 29.1573 22.2221C28.6079 21.3999 27.827 20.759 26.9134 20.3806C25.9998 20.0022 24.9945 19.9031 24.0245 20.0961C23.0546 20.289 22.1637 20.7652 21.4645 21.4645C20.7652 22.1637 20.289 23.0546 20.0961 24.0245C19.9031 24.9945 20.0022 25.9998 20.3806 26.9134C20.759 27.827 21.3999 28.6079 22.2221 29.1573C23.0444 29.7068 24.0111 30 25 30C26.3256 29.9983 27.5964 29.471 28.5337 28.5337C29.471 27.5964 29.9983 26.3256 30 25Z" fill="white"/>
</g>
<defs>
<clipPath id="clip0_746_789">
<rect width="30" height="30" fill="white" transform="translate(10 10)"/>
</clipPath>
</defs>
</svg>
