<svg width="30" height="30" viewBox="0 0 30 30" fill="none" xmlns="http://www.w3.org/2000/svg">
<path d="M13.2269 2.82353C11.9345 2.82353 10.695 3.34412 9.78112 4.27077C8.86724 5.19742 8.35383 6.45422 8.35383 7.76471C8.35383 9.07519 8.86724 10.332 9.78112 11.2586C10.695 12.1853 11.9345 12.7059 13.2269 12.7059C14.5193 12.7059 15.7588 12.1853 16.6727 11.2586C17.5866 10.332 18.1 9.07519 18.1 7.76471C18.1 6.45422 17.5866 5.19742 16.6727 4.27077C15.7588 3.34412 14.5193 2.82353 13.2269 2.82353ZM5.56922 7.76471C5.56922 5.70538 6.37601 3.73039 7.8121 2.27423C9.2482 0.818065 11.196 0 13.2269 0C15.2578 0 17.2056 0.818065 18.6417 2.27423C20.0778 3.73039 20.8846 5.70538 20.8846 7.76471C20.8846 9.82403 20.0778 11.799 18.6417 13.2552C17.2056 14.7113 15.2578 15.5294 13.2269 15.5294C11.196 15.5294 9.2482 14.7113 7.8121 13.2552C6.37601 11.799 5.56922 9.82403 5.56922 7.76471ZM8.35383 19.7647C6.87678 19.7647 5.46023 20.3597 4.4158 21.4187C3.37137 22.4777 2.78461 23.9141 2.78461 25.4118H13.9927V28.2353H0V25.4118C0 23.1652 0.880133 21.0107 2.44678 19.4222C4.01343 17.8336 6.13826 16.9412 8.35383 16.9412H13.9231V19.7647H8.35383ZM24.3653 15.1765V17.1191C25.3608 17.3788 26.2477 17.9096 26.9467 18.6325L28.6077 17.6598L30 20.1049L28.3404 21.0762C28.6115 22.0655 28.6115 23.111 28.3404 24.1002L30 25.0715L28.6077 27.5167L26.9467 26.544C26.2379 27.277 25.3455 27.8002 24.3653 28.0574V30H21.5807V28.0574C20.6006 27.8002 19.7082 27.277 18.9994 26.544L17.3384 27.5167L15.9461 25.0715L17.6057 24.1002C17.3346 23.111 17.3346 22.0655 17.6057 21.0762L15.9461 20.1049L17.3384 17.6598L18.9994 18.6311C19.7084 17.8986 20.6008 17.3759 21.5807 17.1191V15.1765H24.3653ZM20.5351 21.2231C20.3071 21.6409 20.1873 22.1107 20.187 22.5882C20.187 23.0824 20.3137 23.5482 20.5351 23.9534L20.5852 24.0424C20.8326 24.4605 21.1826 24.8065 21.601 25.0467C22.0195 25.287 22.4922 25.4132 22.973 25.4132C23.4539 25.4132 23.9266 25.287 24.345 25.0467C24.7635 24.8065 25.1134 24.4605 25.3608 24.0424L25.411 23.9534C25.6323 23.5482 25.7576 23.0838 25.7576 22.5882C25.7576 22.0941 25.6323 21.6282 25.411 21.2231L25.3608 21.1341C25.1134 20.716 24.7635 20.37 24.345 20.1298C23.9266 19.8895 23.4539 19.7633 22.973 19.7633C22.4922 19.7633 22.0195 19.8895 21.601 20.1298C21.1826 20.37 20.8326 20.716 20.5852 21.1341L20.5351 21.2231Z" fill="#1E1E1E"/>
</svg>
