<svg width="50" height="50" viewBox="0 0 50 50" fill="none" xmlns="http://www.w3.org/2000/svg">
<circle cx="25" cy="25" r="25" fill="#534139"/>
<g clip-path="url(#clip0_1234_595)">
<path d="M18.3332 41.0013C19.8059 41.0013 20.9998 39.8074 20.9998 38.3346C20.9998 36.8619 19.8059 35.668 18.3332 35.668C16.8604 35.668 15.6665 36.8619 15.6665 38.3346C15.6665 39.8074 16.8604 41.0013 18.3332 41.0013Z" fill="white"/>
<path d="M31.6667 41.0013C33.1394 41.0013 34.3333 39.8074 34.3333 38.3346C34.3333 36.8619 33.1394 35.668 31.6667 35.668C30.1939 35.668 29 36.8619 29 38.3346C29 39.8074 30.1939 41.0013 31.6667 41.0013Z" fill="white"/>
<path d="M16.5387 15.6667L16.188 12.9173C16.0607 11.8383 15.5418 10.8434 14.7299 10.1214C13.9179 9.39936 12.8692 9.00035 11.7827 9H9V13H11.7827C11.8917 13.0012 11.9965 13.0427 12.0768 13.1166C12.1571 13.1904 12.2071 13.2914 12.2173 13.4L14.2173 29.0787C14.3435 30.1586 14.8618 31.1546 15.674 31.8775C16.4861 32.6004 17.5354 32.9998 18.6227 33H36.2L40.9653 15.6667H16.5387ZM33.1493 29H18.6227C18.5136 28.9991 18.4089 28.9576 18.3288 28.8837C18.2486 28.8097 18.1989 28.7086 18.1893 28.6L17.0493 19.6667H35.716L33.1493 29Z" fill="white"/>
</g>
<defs>
<clipPath id="clip0_1234_595">
<rect width="32" height="32" fill="white" transform="translate(9 9)"/>
</clipPath>
</defs>
</svg>
