<svg width="60" height="60" viewBox="0 0 60 60" fill="none" xmlns="http://www.w3.org/2000/svg">
<circle cx="30" cy="30" r="30" fill="#534139"/>
<path d="M22.632 24.232C22.7173 21.9493 23.464 20.1893 24.872 18.952C26.28 17.7147 28.1893 17.096 30.6 17.096C32.2 17.096 33.5653 17.3733 34.696 17.928C35.848 18.4827 36.712 19.24 37.288 20.2C37.8853 21.16 38.184 22.2373 38.184 23.432C38.184 24.84 37.832 25.992 37.128 26.888C36.424 27.7627 35.6027 28.36 34.664 28.68V28.808C35.88 29.2133 36.84 29.8853 37.544 30.824C38.248 31.7627 38.6 32.968 38.6 34.44C38.6 35.7627 38.2907 36.936 37.672 37.96C37.0747 38.9627 36.1893 39.752 35.016 40.328C33.864 40.904 32.488 41.192 30.888 41.192C28.328 41.192 26.28 40.5627 24.744 39.304C23.2293 38.0453 22.4293 36.1467 22.344 33.608H27.656C27.6773 34.5467 27.944 35.2933 28.456 35.848C28.968 36.3813 29.7147 36.648 30.696 36.648C31.528 36.648 32.168 36.4133 32.616 35.944C33.0853 35.4533 33.32 34.8133 33.32 34.024C33.32 33 32.9893 32.264 32.328 31.816C31.688 31.3467 30.6533 31.112 29.224 31.112H28.2V26.664H29.224C30.312 26.664 31.1867 26.4827 31.848 26.12C32.5307 25.736 32.872 25.064 32.872 24.104C32.872 23.336 32.6587 22.7387 32.232 22.312C31.8053 21.8853 31.2187 21.672 30.472 21.672C29.6613 21.672 29.0533 21.9173 28.648 22.408C28.264 22.8987 28.04 23.5067 27.976 24.232H22.632Z" fill="white"/>
</svg>
