<svg width="18" height="18" viewBox="0 0 18 18" fill="none" xmlns="http://www.w3.org/2000/svg">
<g clip-path="url(#clip0_881_632)">
<path d="M18 7.5H15.75C15.7484 6.1081 15.1948 4.77367 14.2106 3.78944C13.2264 2.80522 11.8919 2.25159 10.5 2.25V0C12.4885 0.0021837 14.3949 0.793061 15.8009 2.19911C17.207 3.60516 17.9978 5.51155 18 7.5ZM10.5 3.75V6C10.8979 6 11.2794 6.15804 11.5607 6.43934C11.842 6.72065 12 7.10218 12 7.5H14.25C14.2488 6.5058 13.8534 5.55267 13.1504 4.84967C12.4474 4.14666 11.4942 3.75119 10.5 3.75ZM15.1988 16.6763L17.9325 13.9425L12.9518 8.961L10.725 11.1923C8.99802 10.3902 7.61249 9.00012 6.81603 7.2705L9.03903 5.04825L4.05753 0.0675L1.32453 2.8005C0.900038 3.22644 0.564366 3.73244 0.336997 4.28915C0.109629 4.84585 -0.00490917 5.44217 3.11999e-05 6.0435C3.11999e-05 11.4068 6.59328 18 11.9565 18C12.5577 18.0049 13.1538 17.8905 13.7104 17.6632C14.267 17.436 14.7729 17.1005 15.1988 16.6763ZM5.85678 5.04825L4.15578 6.75L4.43253 7.43925C4.95772 8.84325 5.77872 10.1179 6.83984 11.1767C7.90096 12.2355 9.17739 13.0537 10.5825 13.5758L11.2635 13.8353L12.9548 12.1433L14.7548 13.9433L13.6118 15.087C13.3944 15.3013 13.1365 15.4703 12.8533 15.5843C12.5701 15.6982 12.267 15.7548 11.9618 15.7508C8.21178 15.75 2.25003 10.4505 2.25003 6.0435C2.24625 5.7382 2.30304 5.43519 2.41709 5.15198C2.53115 4.86876 2.70022 4.61097 2.91453 4.3935L4.05753 3.249L5.85678 5.04825Z" fill="black"/>
</g>
<defs>
<clipPath id="clip0_881_632">
<rect width="18" height="18" fill="white"/>
</clipPath>
</defs>
</svg>
