<svg width="20" height="20" viewBox="0 0 20 20" fill="none" xmlns="http://www.w3.org/2000/svg">
<g clip-path="url(#clip0_456_837)">
<path d="M19.9999 8.33333H17.4999C17.4982 6.78678 16.883 5.30407 15.7894 4.21049C14.6959 3.11691 13.2131 2.50176 11.6666 2.5V0C13.876 0.00242633 15.9942 0.881179 17.5565 2.44346C19.1187 4.00573 19.9975 6.12394 19.9999 8.33333ZM11.6666 4.16667V6.66667C12.1086 6.66667 12.5325 6.84226 12.8451 7.15482C13.1577 7.46738 13.3333 7.89131 13.3333 8.33333H15.8333C15.8319 7.22867 15.3925 6.16963 14.6114 5.38852C13.8303 4.6074 12.7713 4.16799 11.6666 4.16667ZM16.8874 18.5292L19.9249 15.4917L14.3908 9.95667L11.9166 12.4358C9.99769 11.5446 8.45821 10.0001 7.57326 8.07833L10.0433 5.60917L4.50826 0.075L1.47159 3.11167C0.999933 3.58493 0.626965 4.14716 0.374333 4.76572C0.121701 5.38428 -0.00556314 6.04686 -7.38404e-05 6.715C-7.38404e-05 12.6742 7.32576 20 13.2849 20C13.9529 20.0055 14.6153 19.8783 15.2337 19.6258C15.8521 19.3733 16.4142 19.0006 16.8874 18.5292ZM6.50743 5.60917L4.61743 7.5L4.92493 8.26583C5.50847 9.82583 6.42069 11.2421 7.59971 12.4185C8.77874 13.595 10.197 14.5041 11.7583 15.0842L12.5149 15.3725L14.3941 13.4925L16.3941 15.4925L15.1241 16.7633C14.8825 17.0015 14.5961 17.1893 14.2814 17.3159C13.9666 17.4424 13.6299 17.5053 13.2908 17.5008C9.12409 17.5 2.49993 11.6117 2.49993 6.715C2.49573 6.37578 2.55882 6.0391 2.68555 5.72442C2.81228 5.40973 3.00014 5.1233 3.23826 4.88167L4.50826 3.61L6.50743 5.60917Z" fill="white"/>
</g>
<defs>
<clipPath id="clip0_456_837">
<rect width="20" height="20" fill="white"/>
</clipPath>
</defs>
</svg>
