<svg width="20" height="20" viewBox="0 0 20 20" fill="none" xmlns="http://www.w3.org/2000/svg">
<g clip-path="url(#clip0_456_840)">
<path d="M17.5 0.833984H2.5C1.83696 0.833984 1.20107 1.09738 0.732233 1.56622C0.263392 2.03506 0 2.67094 0 3.33398L0 19.1673H20V3.33398C20 2.67094 19.7366 2.03506 19.2678 1.56622C18.7989 1.09738 18.163 0.833984 17.5 0.833984V0.833984ZM17.3117 3.33398L11.3658 9.27982C10.9979 9.63121 10.5088 9.82728 10 9.82728C9.49125 9.82728 9.00207 9.63121 8.63417 9.27982L2.68833 3.33398H17.3117ZM2.5 16.6673V6.68148L6.86583 11.0473C7.2773 11.459 7.76584 11.7855 8.30353 12.0083C8.84123 12.2311 9.41756 12.3458 9.99958 12.3458C10.5816 12.3458 11.1579 12.2311 11.6956 12.0083C12.2333 11.7855 12.7219 11.459 13.1333 11.0473L17.5 6.68148V16.6673H2.5Z" fill="white"/>
</g>
<defs>
<clipPath id="clip0_456_840">
<rect width="20" height="20" fill="white"/>
</clipPath>
</defs>
</svg>
