<svg width="30" height="30" viewBox="0 0 30 30" fill="none" xmlns="http://www.w3.org/2000/svg">
<g clip-path="url(#clip0_1094_775)">
<path d="M15.0014 29.3275L13.9189 28.5625C12.4939 27.555 0.0014176 18.4788 0.0014176 10.1875C-0.0794071 7.86437 0.762753 5.60371 2.34381 3.89968C3.92488 2.19565 6.11624 1.18683 8.43892 1.09375C9.72099 1.10635 10.9823 1.41896 12.1219 2.00654C13.2614 2.59412 14.2476 3.44036 15.0014 4.4775C15.7552 3.44036 16.7414 2.59412 17.881 2.00654C19.0205 1.41896 20.2818 1.10635 21.5639 1.09375C23.8866 1.18683 26.078 2.19565 27.659 3.89968C29.2401 5.60371 30.0822 7.86437 30.0014 10.1875C30.0014 18.4788 17.5089 27.555 16.0839 28.5625L15.0014 29.3275ZM8.43892 4.84375C7.11138 4.93781 5.87452 5.55173 4.9969 6.55223C4.11927 7.55272 3.67172 8.85902 3.75142 10.1875C3.75142 15.0825 11.0802 21.7 15.0014 24.7013C18.9227 21.7013 26.2514 15.0825 26.2514 10.1875C26.3311 8.85902 25.8836 7.55272 25.0059 6.55223C24.1283 5.55173 22.8915 4.93781 21.5639 4.84375C20.2364 4.93781 18.9995 5.55173 18.1219 6.55223C17.2443 7.55272 16.7967 8.85902 16.8764 10.1875H13.1264C13.2061 8.85902 12.7586 7.55272 11.8809 6.55223C11.0033 5.55173 9.76646 4.93781 8.43892 4.84375Z" fill="#978466"/>
</g>
<defs>
<clipPath id="clip0_1094_775">
<rect width="30" height="30" fill="white"/>
</clipPath>
</defs>
</svg>
