<svg width="50" height="50" viewBox="0 0 50 50" fill="none" xmlns="http://www.w3.org/2000/svg">
<g clip-path="url(#clip0_289_266)">
<path d="M13.543 33.333C15.2689 33.333 16.668 31.9339 16.668 30.208C16.668 28.4821 15.2689 27.083 13.543 27.083C11.8171 27.083 10.418 28.4821 10.418 30.208C10.418 31.9339 11.8171 33.333 13.543 33.333Z" fill="#534139"/>
<path d="M38.5417 6.25H11.4583C8.42041 6.25331 5.50786 7.46158 3.35972 9.60972C1.21159 11.7579 0.00330869 14.6704 0 17.7083L0 32.2917C0.00330869 35.3296 1.21159 38.2421 3.35972 40.3903C5.50786 42.5384 8.42041 43.7467 11.4583 43.75H38.5417C41.5796 43.7467 44.4921 42.5384 46.6403 40.3903C48.7884 38.2421 49.9967 35.3296 50 32.2917V17.7083C49.9967 14.6704 48.7884 11.7579 46.6403 9.60972C44.4921 7.46158 41.5796 6.25331 38.5417 6.25ZM11.4583 12.5H38.5417C39.742 12.5002 40.9054 12.9151 41.8351 13.6743C42.7648 14.4335 43.4037 15.4906 43.6437 16.6667H6.35625C6.59631 15.4906 7.23523 14.4335 8.16492 13.6743C9.09461 12.9151 10.258 12.5002 11.4583 12.5V12.5ZM38.5417 37.5H11.4583C10.077 37.5 8.75224 36.9513 7.77549 35.9745C6.79873 34.9978 6.25 33.673 6.25 32.2917V22.9167H43.75V32.2917C43.75 33.673 43.2013 34.9978 42.2245 35.9745C41.2478 36.9513 39.923 37.5 38.5417 37.5Z" fill="#534139"/>
</g>
<defs>
<clipPath id="clip0_289_266">
<rect width="50" height="50" fill="white"/>
</clipPath>
</defs>
</svg>
