<svg width="50" height="50" viewBox="0 0 50 50" fill="none" xmlns="http://www.w3.org/2000/svg">
<g clip-path="url(#clip0_85_230)">
<path d="M50.0004 20.8333H43.7504C43.746 16.9669 42.2081 13.2602 39.4742 10.5262C36.7402 7.79228 33.0335 6.25441 29.1671 6.25V0C34.6906 0.00606583 39.9861 2.20295 43.8918 6.10864C47.7975 10.0143 49.9944 15.3099 50.0004 20.8333ZM29.1671 10.4167V16.6667C30.2722 16.6667 31.332 17.1057 32.1134 17.8871C32.8948 18.6685 33.3338 19.7283 33.3338 20.8333H39.5838C39.5805 18.0717 38.4819 15.4241 36.5291 13.4713C34.5764 11.5185 31.9288 10.42 29.1671 10.4167ZM42.2192 46.3229L49.8129 38.7292L35.9775 24.8917L29.7921 31.0896C24.9948 28.8616 21.1461 25.0003 18.9338 20.1958L25.1088 14.0229L11.2713 0.1875L3.67959 7.77917C2.50044 8.96233 1.56802 10.3679 0.936443 11.9143C0.304863 13.4607 -0.0132975 15.1171 0.000425751 16.7875C0.000425751 31.6854 18.315 50 33.2129 50C34.8828 50.0137 36.5387 49.6958 38.0848 49.0645C39.6308 48.4333 41.0361 47.5014 42.2192 46.3229ZM16.2692 14.0229L11.5442 18.75L12.3129 20.6646C13.7718 24.5646 16.0523 28.1052 18.9999 31.0463C21.9475 33.9874 25.4931 36.2601 29.3963 37.7104L31.2879 38.4313L35.9858 33.7313L40.9858 38.7313L37.8108 41.9083C37.2069 42.5036 36.4908 42.9731 35.704 43.2896C34.9172 43.6061 34.0755 43.7633 33.2275 43.7521C22.8108 43.75 6.25043 29.0292 6.25043 16.7875C6.23993 15.9395 6.39766 15.0977 6.71449 14.311C7.03132 13.5243 7.50096 12.8082 8.09626 12.2042L11.2713 9.025L16.2692 14.0229Z" fill="black"/>
</g>
<defs>
<clipPath id="clip0_85_230">
<rect width="50" height="50" fill="white"/>
</clipPath>
</defs>
</svg>
