<svg width="112" height="105" viewBox="0 0 112 105" fill="none" xmlns="http://www.w3.org/2000/svg">
<circle cx="81" cy="74" r="31" fill="#534139"/>
<g clip-path="url(#clip0_746_871)">
<path d="M87.5 48.1467V41.6426C87.5 31.697 83.5491 22.1587 76.5165 15.1261C69.4839 8.09346 59.9456 4.14258 50 4.14258C40.0544 4.14258 30.5161 8.09346 23.4835 15.1261C16.4509 22.1587 12.5 31.697 12.5 41.6426V48.1467C8.765 49.9496 5.61231 52.7665 3.40197 56.2758C1.19164 59.7851 0.0127716 63.8452 0 67.9926L0 69.5092C0.00661693 75.384 2.34327 81.0162 6.49733 85.1702C10.6514 89.3243 16.2836 91.661 22.1583 91.6676H33.3333V45.8342H25V41.6426C25 35.0122 27.6339 28.6533 32.3223 23.9649C37.0107 19.2765 43.3696 16.6426 50 16.6426C56.6304 16.6426 62.9893 19.2765 67.6777 23.9649C72.3661 28.6533 75 35.0122 75 41.6426V45.8342H66.6667V79.1676H54.1667V91.6676H77.8417C83.7164 91.661 89.3486 89.3243 93.5027 85.1702C97.6567 81.0162 99.9934 75.384 100 69.5092V67.9926C99.9872 63.8452 98.8084 59.7851 96.598 56.2758C94.3877 52.7665 91.235 49.9496 87.5 48.1467ZM20.8333 79.0759C18.5217 78.7531 16.4048 77.6051 14.8732 75.8438C13.3416 74.0825 12.4987 71.8267 12.5 69.4926V67.9759C12.4987 65.6418 13.3416 63.386 14.8732 61.6247C16.4048 59.8634 18.5217 58.7154 20.8333 58.3926V79.0759ZM87.5 69.4926C87.5013 71.8267 86.6584 74.0825 85.1268 75.8438C83.5952 77.6051 81.4783 78.7531 79.1667 79.0759V58.4259C81.4783 58.7487 83.5952 59.8967 85.1268 61.658C86.6584 63.4193 87.5013 65.6752 87.5 68.0093V69.4926Z" fill="#1E1E1E"/>
</g>
<defs>
<clipPath id="clip0_746_871">
<rect width="100" height="100" fill="white"/>
</clipPath>
</defs>
</svg>
