<svg width="31" height="31" viewBox="0 0 31 31" fill="none" xmlns="http://www.w3.org/2000/svg">
<circle cx="15.5" cy="15.5" r="15.5" fill="#978466"/>
<g clip-path="url(#clip0_32_306)">
<path d="M15.5 22.6635L14.9587 22.281C14.2462 21.7773 7.99998 17.2391 7.99998 13.0935C7.95956 11.9319 8.38064 10.8016 9.17117 9.9496C9.96171 9.09758 11.0574 8.59317 12.2187 8.54663C12.8598 8.55293 13.4904 8.70923 14.0602 9.00303C14.63 9.29682 15.1231 9.71994 15.5 10.2385C15.8769 9.71994 16.37 9.29682 16.9397 9.00303C17.5095 8.70923 18.1402 8.55293 18.7812 8.54663C19.9426 8.59317 21.0382 9.09758 21.8288 9.9496C22.6193 10.8016 23.0404 11.9319 23 13.0935C23 17.2391 16.7537 21.7773 16.0412 22.281L15.5 22.6635ZM12.2187 10.4216C11.555 10.4687 10.9365 10.7756 10.4977 11.2759C10.0589 11.7761 9.83513 12.4293 9.87498 13.0935C9.87498 15.541 13.5394 18.8498 15.5 20.3504C17.4606 18.8504 21.125 15.541 21.125 13.0935C21.1648 12.4293 20.9411 11.7761 20.5022 11.2759C20.0634 10.7756 19.445 10.4687 18.7812 10.4216C18.1175 10.4687 17.499 10.7756 17.0602 11.2759C16.6214 11.7761 16.3976 12.4293 16.4375 13.0935H14.5625C14.6023 12.4293 14.3786 11.7761 13.9397 11.2759C13.5009 10.7756 12.8825 10.4687 12.2187 10.4216Z" fill="white"/>
</g>
<defs>
<clipPath id="clip0_32_306">
<rect width="15" height="15" fill="white" transform="translate(8 8)"/>
</clipPath>
</defs>
</svg>
