<svg width="30" height="28" viewBox="0 0 30 28" fill="none" xmlns="http://www.w3.org/2000/svg">
<path d="M13.8286 24.1484L13.8265 24.1464C9.93422 20.6559 6.82526 17.8603 4.67184 15.2548C2.53436 12.6686 1.5 10.4567 1.5 8.15898C1.5 4.42096 4.4409 1.5 8.25 1.5C10.4127 1.5 12.5086 2.50338 13.8671 4.06873L15 5.37412L16.1329 4.06873C17.4914 2.50338 19.5873 1.5 21.75 1.5C25.5591 1.5 28.5 4.42096 28.5 8.15898C28.5 10.4567 27.4656 12.6686 25.3282 15.2548C23.1747 17.8603 20.0658 20.6559 16.1735 24.1464L16.1714 24.1484L15 25.203L13.8286 24.1484Z" stroke="#534139" stroke-width="3"/>
</svg>
