<svg width="32" height="32" viewBox="0 0 32 32" fill="none" xmlns="http://www.w3.org/2000/svg">
<path d="M1 16C1 8.92947 1 5.39263 3.19632 3.19632C5.39263 1 8.9279 1 16.0016 1C23.0721 1 26.6074 1 28.8037 3.19632C31 5.39263 31 8.92789 31 16C31 23.0705 31 26.6074 28.8037 28.8037C26.6074 31 23.0721 31 16 31C8.92947 31 5.39421 31 3.19632 28.8037C1.00158 26.6058 1 23.0721 1 16Z" stroke="white" stroke-width="2" stroke-linecap="round" stroke-linejoin="round"/>
<path d="M8 24L14.7104 17.2912M14.7104 17.2912L8 8H12.4432L17.2912 14.7104L24 8M14.7104 17.2912L19.5552 24H24L17.2912 14.7088" stroke="white" stroke-width="2" stroke-linecap="round" stroke-linejoin="round"/>
</svg>
