<svg width="50" height="50" viewBox="0 0 50 50" fill="none" xmlns="http://www.w3.org/2000/svg">
<circle cx="25" cy="25" r="25" fill="#978466"/>
<path d="M38.3524 10H11.6552C11.2162 10 10.7952 10.1743 10.4848 10.4846C10.1744 10.7949 10 11.2157 10 11.6545V38.3429C10 38.7818 10.1744 39.2026 10.4848 39.5129C10.7952 39.8231 11.2162 39.9975 11.6552 39.9975H26.0224V28.3828H22.1161V23.8546H26.0224V20.515C26.0224 16.6409 28.3906 14.5308 31.8487 14.5308C33.0157 14.5266 34.182 14.5861 35.3425 14.709V18.7587H32.9514C31.0695 18.7587 30.7054 19.6521 30.7054 20.963V23.8546H35.1897L34.6066 28.3828H30.7054V40H38.3448C38.7836 39.9993 39.2042 39.8248 39.5145 39.5147C39.8247 39.2045 39.9993 38.7841 40 38.3455V11.6571C40.0007 11.2191 39.8276 10.7988 39.5188 10.4882C39.21 10.1776 38.7905 10.002 38.3524 10Z" fill="white"/>
</svg>
