<svg width="30" height="30" viewBox="0 0 30 30" fill="none" xmlns="http://www.w3.org/2000/svg">
<path d="M3.125 15C3.125 9.4025 3.125 6.6025 4.86375 4.86375C6.6025 3.125 9.40125 3.125 15.0013 3.125C20.5988 3.125 23.3975 3.125 25.1362 4.86375C26.875 6.6025 26.875 9.40125 26.875 15C26.875 20.5975 26.875 23.3975 25.1362 25.1362C23.3975 26.875 20.5988 26.875 15 26.875C9.4025 26.875 6.60375 26.875 4.86375 25.1362C3.12625 23.3962 3.125 20.5988 3.125 15Z" stroke="white" stroke-width="4" stroke-linecap="round" stroke-linejoin="round"/>
<path d="M8.75 21.25L13.9925 16.0088M13.9925 16.0088L8.75 8.75H12.2213L16.0088 13.9925L21.25 8.75M13.9925 16.0088L17.7775 21.25H21.25L16.0088 13.9912" stroke="white" stroke-width="4" stroke-linecap="round" stroke-linejoin="round"/>
</svg>
