<svg width="30" height="30" viewBox="0 0 30 30" fill="none" xmlns="http://www.w3.org/2000/svg">
<g clip-path="url(#clip0_20_215)">
<path d="M29.3524 1H2.65521C2.21622 1 1.79521 1.17431 1.4848 1.48459C1.17439 1.79487 1 2.2157 1 2.65451V29.3429C1 29.7818 1.17439 30.2026 1.4848 30.5129C1.79521 30.8231 2.21622 30.9975 2.65521 30.9975H17.0224V19.3828H13.1161V14.8546H17.0224V11.515C17.0224 7.64093 19.3906 5.5308 22.8487 5.5308C24.0157 5.52664 25.182 5.58612 26.3425 5.70898V9.7587H23.9514C22.0695 9.7587 21.7054 10.6521 21.7054 11.963V14.8546H26.1897L25.6066 19.3828H21.7054V31H29.3448C29.7836 30.9993 30.2042 30.8248 30.5145 30.5147C30.8247 30.2045 30.9993 29.7841 31 29.3455V2.65705C31.0007 2.21913 30.8276 1.7988 30.5188 1.48819C30.21 1.17757 29.7905 1.00202 29.3524 1Z" fill="white"/>
</g>
<defs>
<clipPath id="clip0_20_215">
<rect width="30" height="30" fill="white"/>
</clipPath>
</defs>
</svg>
