<svg width="50" height="50" viewBox="0 0 50 50" fill="none" xmlns="http://www.w3.org/2000/svg">
<circle cx="25" cy="25" r="25" fill="#978466"/>
<path d="M25 10C20.9223 10 20.4141 10.0197 18.8183 10.0872C17.2159 10.166 16.132 10.4144 15.1756 10.7857C14.1747 11.1637 13.2683 11.7553 12.5194 12.5194C11.7541 13.2673 11.1623 14.1741 10.7857 15.1756C10.4144 16.132 10.166 17.2159 10.0872 18.8183C10.015 20.4151 10 20.9223 10 25C10 29.0777 10.0197 29.5859 10.0872 31.1817C10.166 32.7794 10.4144 33.868 10.7857 34.8244C11.1637 35.8253 11.7553 36.7317 12.5194 37.4806C13.2673 38.2459 14.1741 38.8377 15.1756 39.2143C16.132 39.5809 17.2206 39.834 18.8183 39.9128C20.4151 39.985 20.9223 40 25 40C29.0777 40 29.5859 39.9803 31.1817 39.9128C32.7794 39.834 33.868 39.5799 34.8244 39.2143C35.8253 38.8363 36.7317 38.2447 37.4806 37.4806C38.2483 36.7347 38.8405 35.8273 39.2143 34.8244C39.5809 33.868 39.834 32.7794 39.9128 31.1817C39.985 29.5849 40 29.0777 40 25C40 20.9223 39.9803 20.4141 39.9128 18.8183C39.834 17.2206 39.58 16.1264 39.2143 15.1756C38.8363 14.1747 38.2447 13.2683 37.4806 12.5194C36.7347 11.7517 35.8273 11.1596 34.8244 10.7857C33.868 10.4144 32.7794 10.166 31.1817 10.0872C29.585 10.015 29.0777 10 25 10ZM25 12.7003C29.0046 12.7003 29.4827 12.72 31.0654 12.7875C32.5253 12.856 33.3204 13.0998 33.8483 13.306C34.5007 13.5472 35.0913 13.9306 35.5773 14.4284C36.0752 14.9114 36.4573 15.5009 36.6949 16.1526C36.9012 16.6805 37.145 17.4756 37.2134 18.9355C37.2809 20.5182 37.3006 20.9973 37.3006 25.0009C37.3006 29.0046 37.2809 29.4837 37.2078 31.0664C37.129 32.5263 36.8852 33.3214 36.6799 33.8492C36.3958 34.5534 36.0789 35.0456 35.5557 35.5782C35.0683 36.073 34.478 36.4546 33.8267 36.6958C33.3054 36.9021 32.4991 37.1459 31.0336 37.2143C29.4424 37.2818 28.9736 37.3015 24.9587 37.3015C20.9439 37.3015 20.476 37.2818 18.883 37.2087C17.4231 37.13 16.6177 36.8862 16.0898 36.6808C15.3772 36.3967 14.8887 36.0798 14.3655 35.5566C13.8377 35.0288 13.502 34.5262 13.2432 33.8277C13.0332 33.3064 12.7932 32.5 12.7153 31.0345C12.6619 29.4621 12.6366 28.9746 12.6366 24.9784C12.6366 20.9842 12.6619 20.4957 12.7153 18.9036C12.7932 17.4381 13.0332 16.6336 13.2432 16.1105C13.502 15.3969 13.8386 14.9094 14.3655 14.3815C14.8878 13.8592 15.3772 13.5217 16.0898 13.2573C16.6177 13.0519 17.4034 12.8082 18.8689 12.735C20.4601 12.6778 20.9289 12.6572 24.9381 12.6572L25 12.7003ZM25 17.3012C23.9886 17.3009 22.9871 17.4998 22.0527 17.8866C21.1182 18.2735 20.2691 18.8407 19.554 19.5559C18.8389 20.271 18.2716 21.1201 17.8848 22.0545C17.4979 22.989 17.299 23.9905 17.2994 25.0019C17.299 26.0132 17.4979 27.0148 17.8848 27.9492C18.2716 28.8837 18.8389 29.7327 19.554 30.4479C20.2691 31.163 21.1182 31.7302 22.0527 32.1171C22.9871 32.504 23.9886 32.7029 25 32.7025C26.0114 32.7029 27.0129 32.504 27.9474 32.1171C28.8818 31.7302 29.7309 31.163 30.446 30.4479C31.1612 29.7327 31.7284 28.8837 32.1152 27.9492C32.5021 27.0148 32.701 26.0132 32.7007 25.0019C32.701 23.9905 32.5021 22.989 32.1152 22.0545C31.7284 21.1201 31.1612 20.271 30.446 19.5559C29.7309 18.8407 28.8818 18.2735 27.9474 17.8866C27.0129 17.4998 26.0114 17.3009 25 17.3012ZM25 30.0022C22.2359 30.0022 19.9997 27.766 19.9997 25.0019C19.9997 22.2378 22.2359 20.0016 25 20.0016C27.7641 20.0016 30.0003 22.2378 30.0003 25.0019C30.0003 27.766 27.7641 30.0022 25 30.0022ZM34.8112 16.9937C34.8107 17.4716 34.6205 17.9297 34.2825 18.2674C33.9444 18.6051 33.4861 18.7948 33.0082 18.7948C32.7719 18.7948 32.5379 18.7483 32.3196 18.6579C32.1013 18.5675 31.903 18.4349 31.7359 18.2678C31.5688 18.1008 31.4363 17.9024 31.3459 17.6841C31.2554 17.4658 31.2089 17.2318 31.2089 16.9956C31.2089 16.7593 31.2554 16.5253 31.3459 16.307C31.4363 16.0887 31.5688 15.8904 31.7359 15.7233C31.903 15.5562 32.1013 15.4237 32.3196 15.3332C32.5379 15.2428 32.7719 15.1963 33.0082 15.1963C33.9993 15.1963 34.8112 16.0026 34.8112 16.9937Z" fill="white"/>
</svg>
