<svg width="100" height="100" viewBox="0 0 100 100" fill="none" xmlns="http://www.w3.org/2000/svg">
<g clip-path="url(#clip0_20_338)">
<path d="M64.7625 29.1694L65.5208 24.7027C65.9148 22.6884 65.865 20.6125 65.375 18.6194C64.6684 15.7407 63.0895 13.1507 60.8543 11.2039C58.6191 9.25706 55.8369 8.04861 52.8884 7.74391C49.94 7.43921 46.9694 8.05316 44.3833 9.50172C41.7972 10.9503 39.722 13.1627 38.4417 15.8361L31.625 29.1694H12.5C9.18479 29.1694 6.00537 30.4863 3.66116 32.8306C1.31696 35.1748 0 38.3542 0 41.6694L0 79.1694C0 82.4846 1.31696 85.664 3.66116 88.0082C6.00537 90.3524 9.18479 91.6694 12.5 91.6694H91.75L100 47.2736L100.104 29.1694H64.7625ZM12.5 41.6694H29.1667V79.1694H12.5V41.6694ZM87.5 45.5611L81.25 79.1694H41.6667V36.9236L49.6625 21.2527C49.8192 20.9461 50.0581 20.6891 50.3523 20.5103C50.6466 20.3315 50.9848 20.238 51.3292 20.2402C51.5989 20.2406 51.8653 20.2998 52.1097 20.4138C52.3542 20.5277 52.5709 20.6936 52.7447 20.8999C52.9184 21.1062 53.0451 21.3479 53.1158 21.6082C53.1865 21.8684 53.1996 22.141 53.1542 22.4069L49.8917 41.6694H87.5V45.5611Z" fill="#1E1E1E"/>
</g>
<defs>
<clipPath id="clip0_20_338">
<rect width="100" height="100" fill="white"/>
</clipPath>
</defs>
</svg>
