<svg width="30" height="30" viewBox="0 0 30 30" fill="none" xmlns="http://www.w3.org/2000/svg">
<g clip-path="url(#clip0_20_249)">
<path d="M8.7499 30.0007C10.1306 30.0007 11.2499 28.8814 11.2499 27.5007C11.2499 26.12 10.1306 25.0007 8.7499 25.0007C7.36919 25.0007 6.24991 26.12 6.24991 27.5007C6.24991 28.8814 7.36919 30.0007 8.7499 30.0007Z" fill="#1E1E1E"/>
<path d="M21.25 30.0007C22.6307 30.0007 23.75 28.8814 23.75 27.5007C23.75 26.12 22.6307 25.0007 21.25 25.0007C19.8693 25.0007 18.75 26.12 18.75 27.5007C18.75 28.8814 19.8693 30.0007 21.25 30.0007Z" fill="#1E1E1E"/>
<path d="M7.0675 6.25L6.73875 3.6725C6.61938 2.66087 6.13297 1.72819 5.37175 1.0513C4.61053 0.374398 3.6274 0.000327346 2.60875 0L0 0V3.75H2.60875C2.71101 3.7511 2.80924 3.79002 2.88449 3.85927C2.95974 3.92852 3.00668 4.02318 3.01625 4.125L4.89125 18.8238C5.00951 19.8362 5.49547 20.7699 6.25683 21.4476C7.0182 22.1253 8.00195 22.4998 9.02125 22.5H25.5L29.9675 6.25H7.0675ZM22.64 18.75H9.02125C8.91904 18.7492 8.82081 18.7103 8.74571 18.641C8.6706 18.5716 8.62401 18.4768 8.615 18.375L7.54625 10H25.0463L22.64 18.75Z" fill="#1E1E1E"/>
</g>
<defs>
<clipPath id="clip0_20_249">
<rect width="30" height="30" fill="white"/>
</clipPath>
</defs>
</svg>
