<svg width="50" height="50" viewBox="0 0 50 50" fill="none" xmlns="http://www.w3.org/2000/svg">
<path fill-rule="evenodd" clip-rule="evenodd" d="M24.9999 9.52377C33.2843 9.52377 39.9999 15.9198 39.9999 23.8095C39.9999 29.0972 36.9835 33.7139 32.4999 36.184V45.2381L30 47.6191H27.5C27.5 48.934 26.3806 50 24.9999 50C23.6192 50 22.5 48.934 22.5 47.6191H20L17.4999 45.2381V36.184C13.0164 33.7139 9.99995 29.0972 9.99995 23.8095C9.99995 15.9198 16.7157 9.52377 24.9999 9.52377ZM27.5001 37.8977C26.6739 38.0294 25.8376 38.0954 24.9999 38.0952C24.1481 38.0952 23.3129 38.0276 22.4999 37.8977L22.5 42.8571H27.5L27.5001 37.8977ZM11.2998 34.3319L13.9514 36.8574L8.6482 41.908L5.99648 39.3827L11.2998 34.3319ZM38.7002 34.3319L44.0034 39.3827L41.3518 41.908L36.0485 36.8574L38.7002 34.3319ZM50 22.0239V25.5953H42.5V22.0239H50ZM7.49999 22.0239V25.5953H0V22.0239H7.49999ZM41.3519 5.71094L44.0034 8.23638L38.7002 13.2871L36.0485 10.7617L41.3519 5.71094ZM8.6482 5.71094L13.9514 10.7617L11.2998 13.2871L5.99648 8.23638L8.6482 5.71094ZM26.8749 0V7.14286H23.1249V0H26.8749Z" fill="#534139"/>
</svg>
