<svg width="31" height="31" viewBox="0 0 31 31" fill="none" xmlns="http://www.w3.org/2000/svg">
<circle cx="15.5" cy="15.5" r="15.5" fill="#978466"/>
<g clip-path="url(#clip0_32_303)">
<path d="M23 23H18.625V21.125H21.125V18.625H23V23ZM23 10.1875C23 9.60734 22.7695 9.05094 22.3593 8.6407C21.9491 8.23047 21.3927 8 20.8125 8H18.625V9.875H20.8125C20.895 9.87613 20.9739 9.90942 21.0322 9.96778C21.0906 10.0261 21.1239 10.105 21.125 10.1875V12.375H23V10.1875ZM12.375 21.125H9.875V18.625H8V23H12.375V21.125ZM9.875 10.1875C9.875 10.1046 9.90792 10.0251 9.96653 9.96653C10.0251 9.90792 10.1046 9.875 10.1875 9.875H12.375V8H10.1875C9.60734 8 9.05094 8.23047 8.6407 8.6407C8.23047 9.05094 8 9.60734 8 10.1875V12.375H9.875V10.1875ZM18 15.5C18 15.0055 17.8534 14.5222 17.5787 14.1111C17.304 13.7 16.9135 13.3795 16.4567 13.1903C15.9999 13.0011 15.4972 12.9516 15.0123 13.048C14.5273 13.1445 14.0819 13.3826 13.7322 13.7322C13.3826 14.0819 13.1445 14.5273 13.048 15.0123C12.9516 15.4972 13.0011 15.9999 13.1903 16.4567C13.3795 16.9135 13.7 17.304 14.1111 17.5787C14.5222 17.8534 15.0055 18 15.5 18C16.1628 17.9992 16.7982 17.7355 17.2669 17.2669C17.7355 16.7982 17.9992 16.1628 18 15.5V15.5Z" fill="white"/>
</g>
<defs>
<clipPath id="clip0_32_303">
<rect width="15" height="15" fill="white" transform="translate(8 8)"/>
</clipPath>
</defs>
</svg>
