<svg width="50" height="50" viewBox="0 0 50 50" fill="none" xmlns="http://www.w3.org/2000/svg">
<circle cx="25" cy="25" r="25" fill="#534139"/>
<g clip-path="url(#clip0_883_1045)">
<path d="M10 20V27.5H18.75C18.748 29.157 18.0889 30.7456 16.9172 31.9172C15.7456 33.0889 14.157 33.748 12.5 33.75V37.5C15.1513 37.497 17.6931 36.4425 19.5678 34.5678C21.4425 32.6931 22.497 30.1513 22.5 27.5V15H15C13.6739 15 12.4021 15.5268 11.4645 16.4645C10.5268 17.4021 10 18.6739 10 20H10Z" fill="white"/>
<path d="M32.5 15C31.1739 15 29.9021 15.5268 28.9645 16.4645C28.0268 17.4021 27.5 18.6739 27.5 20V27.5H36.25C36.248 29.157 35.5889 30.7456 34.4172 31.9172C33.2455 33.0889 31.657 33.748 30 33.75V37.5C32.6512 37.497 35.193 36.4425 37.0678 34.5678C38.9425 32.6931 39.997 30.1513 40 27.5V15H32.5Z" fill="white"/>
</g>
<defs>
<clipPath id="clip0_883_1045">
<rect width="30" height="30" fill="white" transform="translate(10 10)"/>
</clipPath>
</defs>
</svg>
