<svg width="26" height="26" viewBox="0 0 26 26" fill="none" xmlns="http://www.w3.org/2000/svg">
<g clip-path="url(#clip0_25_139)">
<path d="M10.7364 4.28584C10.3791 4.09637 9.96902 4.03095 9.57055 4.09984C9.17207 4.16873 8.80777 4.36804 8.53486 4.66646C8.21052 5.02991 8.04212 5.50633 8.06601 5.99287L8.14256 9.41582L4.79715 12.9121L8.29129 16.2555L8.36661 19.7188C8.37045 19.9568 8.42146 20.1916 8.51669 20.4098C8.61192 20.628 8.74947 20.8251 8.92138 20.9897C9.03447 21.0978 9.16096 21.1909 9.29775 21.2668C9.57449 21.4238 9.88789 21.5046 10.206 21.501C10.5242 21.4974 10.8357 21.4096 11.1088 21.2465L26.0135 12.4357L10.7364 4.28584ZM10.3223 6.63111L19.3987 11.4751L9.06723 11.704L10.4019 10.3092L10.3223 6.63111ZM10.5936 18.9318L10.5117 15.266L9.11634 13.9308L19.4419 13.6994L10.5936 18.9318Z" fill="white"/>
</g>
<defs>
<clipPath id="clip0_25_139">
<rect width="18" height="18" fill="white" transform="translate(13) rotate(43.7366)"/>
</clipPath>
</defs>
</svg>
