<svg width="31" height="31" viewBox="0 0 31 31" fill="none" xmlns="http://www.w3.org/2000/svg">
<circle cx="15.5" cy="15.5" r="15.5" fill="#978466"/>
<g clip-path="url(#clip0_32_314)">
<path d="M19.25 11.75C19.25 10.7554 18.8549 9.80161 18.1517 9.09835C17.4484 8.39509 16.4946 8 15.5 8C14.5054 8 13.5516 8.39509 12.8483 9.09835C12.1451 9.80161 11.75 10.7554 11.75 11.75H8V21.125C8 21.6223 8.19754 22.0992 8.54917 22.4508C8.90081 22.8025 9.37772 23 9.875 23H21.125C21.6223 23 22.0992 22.8025 22.4508 22.4508C22.8025 22.0992 23 21.6223 23 21.125V11.75H19.25ZM15.5 9.875C15.9973 9.875 16.4742 10.0725 16.8258 10.4242C17.1775 10.7758 17.375 11.2527 17.375 11.75H13.625C13.625 11.2527 13.8225 10.7758 14.1742 10.4242C14.5258 10.0725 15.0027 9.875 15.5 9.875V9.875ZM21.125 21.125H9.875V13.625H11.75V14.875H13.625V13.625H17.375V14.875H19.25V13.625H21.125V21.125Z" fill="white"/>
</g>
<defs>
<clipPath id="clip0_32_314">
<rect width="15" height="15" fill="white" transform="translate(8 8)"/>
</clipPath>
</defs>
</svg>
