<svg width="50" height="50" viewBox="0 0 50 50" fill="none" xmlns="http://www.w3.org/2000/svg">
<circle cx="25" cy="25" r="25" fill="#534139"/>
<g clip-path="url(#clip0_746_794)">
<path d="M32.5 17.5C32.5 15.5109 31.7098 13.6032 30.3033 12.1967C28.8968 10.7902 26.9891 10 25 10C23.0109 10 21.1032 10.7902 19.6967 12.1967C18.2902 13.6032 17.5 15.5109 17.5 17.5H10V36.25C10 37.2446 10.3951 38.1984 11.0983 38.9017C11.8016 39.6049 12.7554 40 13.75 40H36.25C37.2446 40 38.1984 39.6049 38.9017 38.9017C39.6049 38.1984 40 37.2446 40 36.25V17.5H32.5ZM25 13.75C25.9946 13.75 26.9484 14.1451 27.6517 14.8483C28.3549 15.5516 28.75 16.5054 28.75 17.5H21.25C21.25 16.5054 21.6451 15.5516 22.3483 14.8483C23.0516 14.1451 24.0054 13.75 25 13.75ZM36.25 36.25H13.75V21.25H17.5V23.75H21.25V21.25H28.75V23.75H32.5V21.25H36.25V36.25Z" fill="white"/>
</g>
<defs>
<clipPath id="clip0_746_794">
<rect width="30" height="30" fill="white" transform="translate(10 10)"/>
</clipPath>
</defs>
</svg>
