<svg width="112" height="112" viewBox="0 0 112 112" fill="none" xmlns="http://www.w3.org/2000/svg">
<circle cx="81" cy="81" r="31" fill="#534139"/>
<g clip-path="url(#clip0_746_868)">
<path d="M64.7625 29.1696L65.5208 24.703C65.9148 22.6887 65.865 20.6127 65.375 18.6196C64.6684 15.7409 63.0895 13.1509 60.8543 11.2041C58.6191 9.2573 55.8369 8.04885 52.8884 7.74415C49.94 7.43946 46.9694 8.05341 44.3833 9.50197C41.7972 10.9505 39.722 13.1629 38.4417 15.8363L31.625 29.1696H12.5C9.18479 29.1696 6.00537 30.4866 3.66116 32.8308C1.31696 35.175 0 38.3544 0 41.6696L0 79.1696C0 82.4848 1.31696 85.6643 3.66116 88.0085C6.00537 90.3527 9.18479 91.6696 12.5 91.6696H91.75L100 47.2738L100.104 29.1696H64.7625ZM12.5 41.6696H29.1667V79.1696H12.5V41.6696ZM87.5 45.5613L81.25 79.1696H41.6667V36.9238L49.6625 21.253C49.8192 20.9464 50.0581 20.6893 50.3523 20.5105C50.6466 20.3317 50.9848 20.2382 51.3292 20.2405C51.5989 20.2408 51.8653 20.3001 52.1097 20.414C52.3542 20.5279 52.5709 20.6938 52.7447 20.9001C52.9184 21.1064 53.0451 21.3481 53.1158 21.6084C53.1865 21.8687 53.1996 22.1413 53.1542 22.4071L49.8917 41.6696H87.5V45.5613Z" fill="#1E1E1E"/>
</g>
<defs>
<clipPath id="clip0_746_868">
<rect width="100" height="100" fill="white"/>
</clipPath>
</defs>
</svg>
